<?xml version="1.0" encoding="UTF-8"?>
<svg version="1.1" xmlns="http://www.w3.org/2000/svg" width="1408" height="768">
<path d="M0 0 C0.8725078 -0.00453111 1.74501561 -0.00906223 2.64396304 -0.01373065 C5.56719519 -0.02638947 8.49024139 -0.02475331 11.41349792 -0.02310181 C13.5096053 -0.02908614 15.60571048 -0.03589147 17.70181274 -0.04345703 C23.39609886 -0.06113422 29.09032488 -0.06581315 34.78463578 -0.0670886 C39.538572 -0.06898762 44.29249422 -0.07634522 49.04642504 -0.08343279 C60.26319093 -0.099721 71.4799247 -0.10460136 82.69670105 -0.10317993 C94.26593842 -0.10197847 105.83498924 -0.12308024 117.40417939 -0.15466726 C127.33808991 -0.18082266 137.27193947 -0.19154753 147.20588416 -0.19026911 C153.13843986 -0.18975925 159.07082981 -0.19545595 165.00335121 -0.21662521 C170.58400148 -0.23599495 176.16432767 -0.2361405 181.7449894 -0.22159195 C183.79119846 -0.21950118 185.83742774 -0.22422068 187.88360214 -0.23631287 C190.68132634 -0.25177327 193.47793422 -0.24245184 196.27563477 -0.22705078 C197.48455917 -0.24248147 197.48455917 -0.24248147 198.7179063 -0.25822389 C205.22277719 -0.17932397 210.39813489 1.73889155 215.35173035 6.01351929 C216.02075378 6.85076538 216.02075378 6.85076538 216.70329285 7.70492554 C217.39551941 8.53830444 217.39551941 8.53830444 218.10173035 9.38851929 C221.37559618 14.40358128 221.61804422 19.08129838 221.59571838 24.93913269 C221.6002495 25.81164049 221.60478061 26.6841483 221.60944903 27.58309573 C221.62210786 30.50632788 221.62047169 33.42937408 221.61882019 36.35263062 C221.62480452 38.44873799 221.63160985 40.54484317 221.63917542 42.64094543 C221.6568526 48.33523155 221.66153153 54.02945757 221.66280699 59.72376847 C221.66470601 64.47770469 221.67206361 69.23162691 221.67915118 73.98555773 C221.69543939 85.20232362 221.70031975 96.41905739 221.69889832 107.63583374 C221.69769686 119.20507111 221.71879862 130.77412193 221.75038564 142.34331208 C221.77654104 152.2772226 221.78726591 162.21107216 221.7859875 172.14501685 C221.78547763 178.07757255 221.79117434 184.0099625 221.8123436 189.9424839 C221.83171334 195.52313417 221.83185888 201.10346036 221.81731033 206.68412209 C221.81521956 208.73033115 221.81993907 210.77656043 221.83203125 212.82273483 C221.84749166 215.62045903 221.83817023 218.41706691 221.82276917 221.21476746 C221.83305629 222.02071706 221.84334342 222.82666667 221.85394228 223.65703899 C221.77504235 230.16190988 219.85682684 235.33726758 215.5821991 240.29086304 C207.8656884 246.45694317 200.78537025 247.4210185 190.99862671 247.40113831 C189.76314566 247.40453664 189.76314566 247.40453664 188.5027054 247.40800363 C185.75078723 247.41431902 182.99891862 247.41351585 180.24699402 247.41268921 C178.27058855 247.41568224 176.29418366 247.4190851 174.31777954 247.42286682 C168.95406211 247.43169646 163.59036064 247.4340445 158.22663665 247.43468261 C154.87399298 247.43539371 151.52135337 247.43752917 148.16871071 247.44017982 C136.46791451 247.44942987 124.76712969 247.45351514 113.06632996 247.45272827 C102.16686476 247.45212759 91.26744907 247.46267841 80.36799639 247.47847193 C71.00390331 247.49155621 61.63982639 247.49691179 52.27572423 247.49627286 C46.68581451 247.49601813 41.0959488 247.49885553 35.5060482 247.50945091 C30.24720227 247.51914677 24.98844228 247.51920083 19.72959328 247.51193428 C17.80313618 247.51089029 15.87667369 247.5132403 13.95022583 247.51929474 C11.31302029 247.52704395 8.67610938 247.52235057 6.03890991 247.5146637 C5.28324665 247.51980726 4.52758338 247.52495082 3.74902123 247.53025025 C-4.59837368 247.47677508 -12.56150427 246.36172919 -18.67170715 240.26742554 C-26.70035656 231.49298317 -25.51406837 220.85411592 -25.4322052 209.73812866 C-25.43870516 207.65437405 -25.447771 205.57062611 -25.459198 203.4868927 C-25.48221083 197.84832952 -25.4675998 192.21044617 -25.44472861 186.57190514 C-25.42576362 180.66022193 -25.43697868 174.74858292 -25.44363403 168.83688354 C-25.44996785 158.91078947 -25.43173956 148.9849666 -25.39900208 139.05892944 C-25.36151035 127.59690231 -25.3632885 116.13538888 -25.38604325 104.6733346 C-25.40702006 93.6293521 -25.39970237 82.58555875 -25.3797245 71.5415802 C-25.37175549 66.84959992 -25.37370968 62.15778036 -25.38374901 57.46580505 C-25.39432942 51.93666528 -25.38008879 46.4081215 -25.34700584 40.879076 C-25.33882456 38.85468731 -25.33905199 36.83024377 -25.34848404 34.80586052 C-25.43647821 13.58276798 -25.43647821 13.58276798 -18.19382763 5.64839935 C-12.62602555 0.59690113 -7.25057795 -0.02763397 0 0 Z M22.32829285 91.26742554 C13.40380719 104.92735256 10.6201962 119.51040289 13.3556366 135.61508179 C16.923282 149.01166193 23.70180778 159.18378587 35.7618866 166.29086304 C49.16451696 173.56802992 64.2736314 175.78800149 79.26579285 172.14242554 C86.09804778 169.92484666 93.44452355 166.66527581 98.32829285 161.26742554 C96.7370524 157.63152667 94.48890245 154.86676029 91.95329285 151.82992554 C89.04539889 148.33364502 86.15813602 144.82734241 83.32829285 141.26742554 C79.32390423 141.88348532 76.62649874 144.02183855 73.32829285 146.26742554 C66.98778344 148.38092867 60.18160192 147.90718183 54.0743866 145.22836304 C48.58605061 142.20793652 46.13369859 137.77574417 44.0587616 132.07601929 C42.03210313 124.28368004 42.66679362 116.78050865 45.9962616 109.46273804 C48.78819058 104.86137707 52.40407459 102.18770383 57.20329285 99.89242554 C64.66073362 98.40093738 70.43331552 99.05769471 77.32829285 102.26742554 C79.05485535 103.87289429 79.05485535 103.87289429 80.32829285 105.26742554 C85.25755014 103.14082988 87.79247208 99.4353961 91.07829285 95.32992554 C91.98128113 94.23647827 91.98128113 94.23647827 92.9025116 93.12094116 C93.47098816 92.41775757 94.03946472 91.71457397 94.62516785 90.99008179 C95.14433777 90.34820923 95.66350769 89.70633667 96.19841003 89.04501343 C97.5965093 87.19650224 97.5965093 87.19650224 97.32829285 84.26742554 C75.10967154 67.10052296 40.79476099 69.80294702 22.32829285 91.26742554 Z M115.32829285 85.26742554 C109.8877065 93.3534346 108.06121176 100.59959684 109.32829285 110.26742554 C110.76289776 116.90790735 113.9460115 122.06259367 119.61735535 125.75961304 C128.27825143 130.46821288 137.65695853 132.97750802 147.11515808 135.58480835 C149.56647952 136.34089161 151.94649429 137.31470611 154.32829285 138.26742554 C154.32829285 141.89742554 154.32829285 145.52742554 154.32829285 149.26742554 C145.20864913 151.54733647 136.65383893 151.3363792 128.41423035 146.65414429 C126.32829285 145.26742554 126.32829285 145.26742554 124.36735535 143.53695679 C122.37986832 142.05283229 122.37986832 142.05283229 119.8634491 142.25180054 C116.41787485 143.63215386 115.0169018 145.58902641 112.76579285 148.51742554 C111.65010925 149.94828491 111.65010925 149.94828491 110.5118866 151.40805054 C109.79130066 152.35164429 109.07071472 153.29523804 108.32829285 154.26742554 C106.99857858 155.93698102 105.66643114 157.60461423 104.32829285 159.26742554 C119.27862313 170.74478086 134.75690678 174.6900311 153.32829285 173.26742554 C163.38837588 171.70658841 172.33906636 167.5608326 178.82048035 159.57211304 C183.59483897 152.27451825 185.50928172 144.65393819 183.9259491 136.09164429 C181.92100784 128.50431757 177.28745632 122.99092652 170.87516785 118.57992554 C163.498535 114.53331552 155.56343931 112.43753071 147.4506073 110.35848999 C146.57364197 110.12863403 145.69667664 109.89877808 144.7931366 109.66195679 C144.00543884 109.46448853 143.21774109 109.26702026 142.40617371 109.06356812 C140.04040973 108.15712277 138.88149312 107.25866899 137.32829285 105.26742554 C136.89079285 102.26742554 136.89079285 102.26742554 137.32829285 99.26742554 C141.46746883 95.37939057 145.84160647 95.14147578 151.32829285 95.26742554 C158.50058215 96.46103089 162.19281626 98.88494226 168.32829285 103.26742554 C175.75329285 95.34742554 175.75329285 95.34742554 183.32829285 87.26742554 C180.16572447 80.94228878 173.67933512 78.81695955 167.32829285 76.26742554 C151.14485954 70.9412323 127.36368586 71.03201444 115.32829285 85.26742554 Z " fill="#0F655D" transform="translate(150.6717071533203,260.7325744628906)"/>
<path d="M0 0 C6.6 0 13.2 0 20 0 C20 5.61 20 11.22 20 17 C24.95 17 29.9 17 35 17 C35 21.95 35 26.9 35 32 C32.23547967 33.38226016 29.9538637 33.09525387 26.875 33.0625 C25.77929688 33.05347656 24.68359375 33.04445313 23.5546875 33.03515625 C22.71164062 33.02355469 21.86859375 33.01195312 21 33 C20.88391873 37.41644598 20.8127868 41.83250017 20.75 46.25 C20.71648437 47.50425781 20.68296875 48.75851562 20.6484375 50.05078125 C20.63554688 51.25605469 20.62265625 52.46132813 20.609375 53.703125 C20.58842773 54.81333008 20.56748047 55.92353516 20.54589844 57.06738281 C21.10250459 60.66198122 22.15150665 61.81187494 25 64 C28.09827729 64.51295982 30.83488921 64.18618299 34 64 C34.495 71.425 34.495 71.425 35 79 C28.19865508 82.40067246 18.645165 82.21894401 11.24609375 80.27734375 C6.31228047 77.96491134 3.31121888 74.63880567 0.92431641 69.83520508 C-0.24740596 66.24111849 -0.35384687 62.81659134 -0.4140625 59.07421875 C-0.43342865 58.32662796 -0.4527948 57.57903717 -0.4727478 56.80879211 C-0.53223918 54.43514194 -0.57880592 52.06144246 -0.625 49.6875 C-0.66320789 48.07224518 -0.70226125 46.45701013 -0.7421875 44.84179688 C-0.8379153 40.8946929 -0.92205767 36.94749361 -1 33 C-4.3 32.67 -7.6 32.34 -11 32 C-11.495 29.03 -11.495 29.03 -12 26 C-15.3 29.63 -18.6 33.26 -22 37 C-22.969375 36.505 -23.93875 36.01 -24.9375 35.5 C-29.30544573 33.65202296 -33.31615719 33.2492201 -38 34 C-42.00369997 35.8535648 -43.61676469 37.38187853 -45.9375 41.125 C-47.96380548 46.68834759 -46.98382383 52.56633053 -44.8125 57.9375 C-42.03340017 61.09992395 -39.2227763 62.6361923 -35.04296875 63.3203125 C-29.79411646 63.62139389 -27.06366996 62.25093597 -23 59 C-18.79467528 60.52394795 -16.74995834 63.6152865 -14.25 67.125 C-13.83878906 67.68832031 -13.42757812 68.25164062 -13.00390625 68.83203125 C-11.99523915 70.21601634 -10.99660714 71.60730541 -10 73 C-12.62595683 75.84032065 -14.87697765 77.67566642 -18.4375 79.1875 C-19.17871094 79.51105469 -19.91992188 79.83460938 -20.68359375 80.16796875 C-29.19510873 83.22522455 -39.5006719 83.07328646 -48 80 C-54.60047903 76.86025845 -59.92403605 73.11394592 -64 67 C-64.4125 66.401875 -64.825 65.80375 -65.25 65.1875 C-69.84345564 57.02135664 -69.1952498 45.87166464 -67.375 36.9296875 C-64.6870678 29.27388062 -59.15585392 22.36089595 -51.9375 18.5625 C-50.63689709 18.0126312 -49.32458431 17.48928522 -48 17 C-46.948125 16.5875 -45.89625 16.175 -44.8125 15.75 C-32.42347839 13.31281542 -21.59140987 15.32280682 -11 22 C-11 20.35 -11 18.7 -11 17 C-7.7 16.67 -4.4 16.34 -1 16 C-0.67 10.72 -0.34 5.44 0 0 Z " fill="#33434F" transform="translate(858,345)"/>
<path d="M0 0 C1.546875 1.5625 1.546875 1.5625 1.546875 5.5625 C-0.16239108 7.80282837 -1.83824978 9.78061389 -3.765625 11.8125 C-4.26513672 12.36679687 -4.76464844 12.92109375 -5.27929688 13.4921875 C-6.60256909 14.91536239 -8.0232674 16.24645161 -9.453125 17.5625 C-12.84161614 17.5625 -13.70778029 16.96042933 -16.453125 15.125 C-22.84753995 10.87416734 -28.92269131 10.93793796 -36.453125 11.5625 C-42.72889133 13.24278582 -46.88018057 17.27007606 -50.453125 22.5625 C-54.43861776 30.12119317 -55.13191945 36.9040321 -53.2421875 45.10546875 C-51.08955744 51.80846038 -47.18017588 56.58862796 -41.453125 60.5625 C-35.49046509 63.4744967 -28.21495395 63.67161066 -21.8828125 61.8046875 C-17.6741867 60.04067602 -14.39724047 58.14664057 -11.453125 54.5625 C-7.37936469 56.17260527 -4.68805431 59.10072271 -1.703125 62.1875 C-1.19652344 62.703125 -0.68992187 63.21875 -0.16796875 63.75 C1.07491402 65.01633339 2.31152776 66.2888144 3.546875 67.5625 C-1.07362727 75.91331602 -8.55695985 79.73256166 -17.453125 82.5625 C-31.39510357 86.11308877 -46.09939005 83.57331137 -58.328125 76.3125 C-68.98753506 68.97932094 -75.11663964 58.73036647 -77.890625 46.0625 C-80.04750945 30.94229986 -75.73259264 17.79701123 -67.328125 5.4375 C-63.49561398 1.12592511 -58.44839403 -1.67202264 -53.453125 -4.4375 C-52.67710937 -4.87707031 -51.90109375 -5.31664062 -51.1015625 -5.76953125 C-35.10284654 -13.14353225 -14.17574155 -9.24942002 0 0 Z " fill="#344551" transform="translate(491.453125,343.4375)"/>
<path d="M0 0 C6.14258441 4.99479143 11.03025672 11.18843115 11.90673828 19.27197266 C12.37871656 28.10922287 12.75078152 36.63925497 7.6875 44.25 C7.275 44.94222656 6.8625 45.63445312 6.4375 46.34765625 C1.9095229 53.2296669 -4.79169753 57.57124452 -12.75 59.625 C-24.12214362 61.56707382 -34.83181539 60.25250144 -44.5 53.68359375 C-51.84761978 47.87200655 -55.73504252 40.0905923 -57.1875 30.875 C-57.82000104 22.15882708 -55.9539808 13.64519515 -51.3125 6.25 C-50.77625 5.38375 -50.24 4.5175 -49.6875 3.625 C-36.35816419 -9.70433581 -15.24234156 -10.54574104 0 0 Z M-34.3125 16.25 C-36.96612802 21.02653043 -37.99264715 24.80882279 -37.3125 30.25 C-35.45465263 34.9945027 -32.76578229 38.67699246 -28.3125 41.25 C-23.84130104 42.45059972 -20.4053746 42.62116496 -16 41.125 C-12.10565285 38.40801362 -9.81721001 35.76413003 -8.3125 31.25 C-7.50694136 24.77100691 -8.20846124 20.29558925 -11.828125 14.84375 C-14.25192172 12.24135773 -16.39638463 11.38146671 -19.8984375 10.87890625 C-26.58151534 10.71978535 -29.90008623 11.06541383 -34.3125 16.25 Z " fill="#344451" transform="translate(553.3125,366.75)"/>
<path d="M0 0 C6.09259099 4.92366365 8.29844124 10.51791029 10 18 C10.35878017 21.54532339 10.35349521 25.04111092 10.29296875 28.6015625 C10.28872391 29.564039 10.28447906 30.5265155 10.28010559 31.51815796 C10.26348275 34.55407204 10.22586256 37.58929088 10.1875 40.625 C10.17243193 42.69920908 10.15874727 44.77342869 10.14648438 46.84765625 C10.11620106 51.89891257 10.05744961 56.94868981 10 62 C3.07 62 -3.86 62 -11 62 C-11.04898438 59.18210937 -11.09796875 56.36421875 -11.1484375 53.4609375 C-11.20250539 50.7204881 -11.25979004 47.98012342 -11.31738281 45.23974609 C-11.35557692 43.34072222 -11.39044625 41.44162836 -11.421875 39.54248047 C-11.46773387 36.80671237 -11.52569337 34.07142208 -11.5859375 31.3359375 C-11.59748871 30.49195404 -11.60903992 29.64797058 -11.62094116 28.77841187 C-11.73590396 24.14756115 -12.24306294 20.35843685 -14 16 C-21.19021514 14.73387083 -21.19021514 14.73387083 -28 17 C-30.25205531 21.98621083 -30.33866293 26.75093356 -30.4140625 32.1171875 C-30.43342865 32.97434357 -30.4527948 33.83149963 -30.4727478 34.71463013 C-30.53221256 37.43465428 -30.57879569 40.15472152 -30.625 42.875 C-30.6632103 44.72658028 -30.70226378 46.57814337 -30.7421875 48.4296875 C-30.83946373 52.95303217 -30.91929386 57.4762083 -31 62 C-37.93 62 -44.86 62 -52 62 C-52 41.21 -52 20.42 -52 -1 C-45.4 -1 -38.8 -1 -32 -1 C-31.67 0.98 -31.34 2.96 -31 5 C-30.56429687 4.59007812 -30.12859375 4.18015625 -29.6796875 3.7578125 C-21.15838801 -3.95193465 -10.36527879 -5.61767847 0 0 Z " fill="#364651" transform="translate(700,363)"/>
<path d="M0 0 C2.30859375 1.51171875 2.30859375 1.51171875 4 3 C4 3.66 4 4.32 4 5 C4.66 5 5.32 5 6 5 C12.78919464 13.57353426 14.36817932 23.32279976 14 34 C13 35 13 35 11.20933533 35.12025452 C10.42990067 35.11803391 9.650466 35.11581329 8.84741211 35.11352539 C7.96657455 35.11344986 7.085737 35.11337433 6.1782074 35.11329651 C5.22092239 35.10813522 4.26363739 35.10297394 3.27734375 35.09765625 C2.30213272 35.0962413 1.32692169 35.09482635 0.32215881 35.09336853 C-2.80609143 35.08775133 -5.93427123 35.07519593 -9.0625 35.0625 C-11.17773334 35.05748722 -13.29296781 35.05292393 -15.40820312 35.04882812 C-20.60549296 35.03777631 -25.80274145 35.02102146 -31 35 C-29.16352352 39.89840127 -29.16352352 39.89840127 -25.9375 43.875 C-20.47520056 45.96694447 -15.23105514 46.8419076 -9.6875 44.75 C-8.800625 44.1725 -7.91375 43.595 -7 43 C-5.35 42.01 -3.7 41.02 -2 40 C4.435 43.96 4.435 43.96 11 48 C9.61750305 53.5299878 6.54424257 55.7529893 2 59 C-7.71520371 63.92877551 -18.3420925 64.27075285 -28.6875 61.375 C-38.16623001 58.17044715 -44.46407613 53.00055894 -48.96875 44.08203125 C-52.85901972 34.48243051 -52.32300668 22.89017778 -48.328125 13.4375 C-43.44364101 4.47303527 -36.22625799 -0.48711276 -26.578125 -3.45703125 C-17.24290416 -5.42308534 -8.50864386 -4.24721956 0 0 Z M-28 14 C-30.32875487 16.98371717 -31 18.21590855 -31 22 C-22.75 22 -14.5 22 -6 22 C-6.30140736 15.37082457 -6.30140736 15.37082457 -9.0625 12.625 C-16.03473817 8.76801718 -21.69649101 9.37742674 -28 14 Z " fill="#354551" transform="translate(770,364)"/>
<path d="M0 0 C5.08731837 5.22863277 7.38336344 11.76820915 7.36352539 18.98925781 C7.36344986 19.90991028 7.36337433 20.83056274 7.36329651 21.77911377 C7.35813522 22.76466248 7.35297394 23.75021118 7.34765625 24.765625 C7.3462413 25.78098328 7.34482635 26.79634155 7.34336853 27.84246826 C7.33777516 31.08250892 7.32522385 34.32248025 7.3125 37.5625 C7.30748414 39.76041567 7.30292139 41.95833242 7.29882812 44.15625 C7.2878079 49.54169029 7.27107633 54.92709019 7.25 60.3125 C3.93751813 60.34138146 0.62506833 60.35925799 -2.6875 60.375 C-3.63302734 60.38337891 -4.57855469 60.39175781 -5.55273438 60.40039062 C-6.90141602 60.40522461 -6.90141602 60.40522461 -8.27734375 60.41015625 C-9.10999756 60.41539307 -9.94265137 60.42062988 -10.80053711 60.42602539 C-12.75 60.3125 -12.75 60.3125 -13.75 59.3125 C-13.8136059 56.991739 -13.80909325 54.66907162 -13.77734375 52.34765625 C-13.76467543 50.89258069 -13.75231616 49.43750242 -13.74023438 47.98242188 C-13.71562595 45.69188938 -13.6878915 43.40149937 -13.65405273 41.11108398 C-13.01069655 28.44279713 -13.01069655 28.44279713 -15.75 16.3125 C-18.52562607 13.68267175 -19.30752878 13.30459873 -23.25 13.375 C-27.02667042 14.38660815 -28.40529925 15.24635287 -30.75 18.3125 C-32.05920503 22.2401151 -31.98462868 26.03820631 -32.06640625 30.13671875 C-32.08718735 30.99811966 -32.10796844 31.85952057 -32.12937927 32.74702454 C-32.19474909 35.49793544 -32.25370132 38.24894156 -32.3125 41 C-32.35569717 42.86524421 -32.39931185 44.7304788 -32.44335938 46.59570312 C-32.55120316 51.16787258 -32.65036991 55.74011462 -32.75 60.3125 C-39.68 60.3125 -46.61 60.3125 -53.75 60.3125 C-53.75 39.5225 -53.75 18.7325 -53.75 -2.6875 C-47.15 -2.6875 -40.55 -2.6875 -33.75 -2.6875 C-33.42 -0.7075 -33.09 1.2725 -32.75 3.3125 C-32.32589844 2.90257812 -31.90179687 2.49265625 -31.46484375 2.0703125 C-21.87197866 -6.74247345 -10.72896162 -6.58368099 0 0 Z " fill="#334450" transform="translate(628.75,364.6875)"/>
<path d="M0 0 C5.95606442 4.62819724 9.87500408 11.24596317 10.9296875 18.71484375 C11.55628664 30.1502781 11.30226141 39.29433265 3.9296875 48.71484375 C-2.66167618 55.59205739 -9.01982075 57.85451308 -18.4453125 58.21484375 C-27.0225109 58.05220226 -33.01262207 55.77253418 -39.0703125 49.71484375 C-39.4003125 61.59484375 -39.7303125 73.47484375 -40.0703125 85.71484375 C-44.0303125 85.71484375 -47.9903125 85.71484375 -52.0703125 85.71484375 C-53.0703125 84.71484375 -53.0703125 84.71484375 -53.15260315 81.21580505 C-53.13763849 79.62094464 -53.11695649 78.02613248 -53.09204102 76.43139648 C-53.08243347 75.56318268 -53.07282593 74.69496887 -53.06292725 73.80044556 C-53.02981452 70.91636351 -52.98952928 68.03242721 -52.94921875 65.1484375 C-52.92492961 63.15447003 -52.90108547 61.16049709 -52.87767029 59.16651917 C-52.81470927 53.90733636 -52.74567689 48.64824982 -52.67541504 43.38916016 C-52.60483984 38.02706299 -52.53995827 32.66489733 -52.47460938 27.30273438 C-52.34544223 16.77336224 -52.20986634 6.24408298 -52.0703125 -4.28515625 C-48.4403125 -4.28515625 -44.8103125 -4.28515625 -41.0703125 -4.28515625 C-40.7403125 -2.63515625 -40.4103125 -0.98515625 -40.0703125 0.71484375 C-39.7403125 1.37484375 -39.4103125 2.03484375 -39.0703125 2.71484375 C-38.3484375 2.11671875 -37.6265625 1.51859375 -36.8828125 0.90234375 C-25.73804756 -7.76580676 -11.9448881 -7.41484563 0 0 Z M-35.8828125 11.40234375 C-40.05591176 17.72160835 -41.87415864 23.6437207 -40.765625 31.2265625 C-39.07170886 37.28849835 -35.43553327 42.0761738 -30.3828125 45.77734375 C-25.46365753 48.49136029 -20.53828388 48.59624809 -15.0703125 47.71484375 C-9.51424724 45.78764768 -5.77063698 42.1228217 -3.1640625 36.8984375 C-0.0519134 29.53589958 -0.41670046 23.13288388 -3.16796875 15.75390625 C-5.49002853 10.50665428 -8.74559995 7.77153127 -13.86328125 5.4453125 C-22.4127509 2.61566502 -29.59268951 5.39178178 -35.8828125 11.40234375 Z " fill="#384753" transform="translate(1022.0703125,368.28515625)"/>
<path d="M0 0 C2.18198218 1.5591897 4.04605806 3.14889711 6 5 C4.44499019 8.81684226 1.96404505 11.19195732 -1 14 C-3.56634828 12.76815282 -5.99958066 11.4013162 -8.4375 9.9375 C-14.1109568 6.69724548 -19.95038805 6.15549964 -26.37890625 7.49609375 C-31.15151558 8.78931823 -31.15151558 8.78931823 -34.5 12.1875 C-34.665 13.115625 -34.83 14.04375 -35 15 C-35.15210938 15.62390625 -35.30421875 16.2478125 -35.4609375 16.890625 C-36.2155723 20.6210838 -36.16338504 22.60320777 -34.6875 26.1875 C-28.81045551 32.3378954 -20.75415217 34.50292504 -12.83203125 37.03515625 C-5.70539722 39.46312674 1.2282186 42.72357217 5.3125 49.3125 C8.47947852 56.25648978 8.20843675 64.75098046 6.15234375 71.98046875 C3.07582832 78.87394909 -1.44766514 82.91780162 -8.24609375 86.02734375 C-19.47640704 90.02894964 -32.28691583 89.07755552 -43 84 C-46.30721732 81.59308073 -49.20177739 78.97898635 -52 76 C-50.23770311 72.22480438 -48.23124812 69.69270677 -45 67 C-41.66983274 67.30637539 -39.98537678 68.67131666 -37.625 70.9375 C-32.06707581 75.82706622 -26.86612238 76.4132111 -19.62109375 76.24609375 C-14.57850577 75.77264659 -11.97074861 74.07293267 -8.625 70.375 C-6.24049972 65.42257634 -6.59929807 61.19400086 -7.26953125 55.8515625 C-7.84599795 53.86182809 -7.84599795 53.86182809 -9.72265625 52.89453125 C-10.84994141 52.45173828 -10.84994141 52.45173828 -12 52 C-12.84433594 51.63261719 -13.68867187 51.26523437 -14.55859375 50.88671875 C-19.9646701 48.63479821 -25.38426239 46.47529952 -30.875 44.4375 C-38.51674713 41.50679411 -43.82861561 38.48848442 -48.05859375 31.16796875 C-50.45699228 25.64468583 -50.62951027 19.07076942 -49 13.3125 C-46.12183218 6.16185196 -41.59297286 1.4049146 -34.6875 -2 C-23.95791749 -5.98141741 -9.94238372 -6.10189432 0 0 Z " fill="#354450" transform="translate(950,339)"/>
<path d="M0 0 C3.96 0 7.92 0 12 0 C12.33 13.2 12.66 26.4 13 40 C15.31 38.02 17.62 36.04 20 34 C26.17093777 30.98309709 33.65568371 31.03411354 40.1875 33 C45.70036331 35.35946077 49.72127722 40.04961359 52.078125 45.48754883 C53.31234119 50.19005633 53.24771695 54.58981692 53.1953125 59.4296875 C53.1924826 60.42001984 53.18965271 61.41035217 53.18673706 62.43069458 C53.1755847 65.57892176 53.15048907 68.72685949 53.125 71.875 C53.11496382 74.01562088 53.10583908 76.15624624 53.09765625 78.296875 C53.07566153 83.53136072 53.04116563 88.76563136 53 94 C49.04 94 45.08 94 41 94 C40.98541748 92.82493896 40.97083496 91.64987793 40.95581055 90.43920898 C40.89760489 86.05739728 40.82037392 81.67608752 40.73754883 77.29467773 C40.70440393 75.40250833 40.67633983 73.51024254 40.65356445 71.61791992 C40.61982579 68.88939546 40.56750135 66.161746 40.51171875 63.43359375 C40.50532883 62.59477158 40.4989389 61.7559494 40.49235535 60.89170837 C40.34264877 54.83889367 39.31220652 50.07020259 35.58203125 45.1171875 C32.43422415 42.89429162 28.75432384 42.89714181 25 43 C20.26305718 44.60877303 17.71674892 46.82784988 15 51 C12.95062471 55.96597158 12.6643637 60.39504709 12.5859375 65.6796875 C12.56657135 66.49245148 12.5472052 67.30521545 12.5272522 68.14260864 C12.46782117 70.71996812 12.42121819 73.29737315 12.375 75.875 C12.33678657 77.63022702 12.29773291 79.38543597 12.2578125 81.140625 C12.16215001 85.42693524 12.07798551 89.71333319 12 94 C8.04 94 4.08 94 0 94 C0 62.98 0 31.96 0 0 Z " fill="#2D3D4A" transform="translate(1046,331)"/>
<path d="M0 0 C6.35977439 5.19968525 9.3646331 10.45071989 11.3359375 18.3359375 C11.66859239 22.32779621 11.87230102 26.33527065 11.5859375 30.3359375 C10.5859375 31.3359375 10.5859375 31.3359375 8.68138123 31.45619202 C7.84865189 31.45397141 7.01592255 31.45175079 6.15795898 31.44946289 C5.21705917 31.44938736 4.27615936 31.44931183 3.30674744 31.44923401 C2.28384109 31.44407272 1.26093475 31.43891144 0.20703125 31.43359375 C-0.83476791 31.4321788 -1.87656708 31.43076385 -2.94993591 31.42930603 C-6.29217344 31.4236883 -9.63434507 31.4111328 -12.9765625 31.3984375 C-15.23632716 31.39342478 -17.49609287 31.38886148 -19.75585938 31.38476562 C-25.30861641 31.37371311 -30.86133475 31.35695774 -36.4140625 31.3359375 C-35.79942958 32.77825095 -35.17839161 34.21783598 -34.5546875 35.65625 C-34.03696777 36.85918701 -34.03696777 36.85918701 -33.50878906 38.08642578 C-31.29949392 42.62622181 -28.19538863 45.19701478 -23.6640625 47.2109375 C-18.24950043 48.98186569 -13.26778353 48.74077101 -8.13671875 46.21484375 C-5.25929054 44.46132964 -2.80008897 42.72196397 -0.4140625 40.3359375 C3.54611693 40.61880746 6.43143083 43.11344416 9.5859375 45.3359375 C6.86935572 51.49352288 1.07306432 54.69460256 -4.8125 57.46484375 C-13.70316513 60.44174814 -23.59859932 60.16059104 -32.01171875 56.07421875 C-37.2530874 53.13318568 -41.03348489 50.30737516 -44.4140625 45.3359375 C-44.79304688 44.78679687 -45.17203125 44.23765625 -45.5625 43.671875 C-49.97139617 36.32371472 -50.28316701 26.75034427 -48.7890625 18.4609375 C-46.54111779 10.42192993 -40.84899336 2.50631383 -33.5859375 -1.73046875 C-23.08258992 -6.45697516 -9.63345261 -6.64053529 0 0 Z M-30.2265625 8.8984375 C-34.24206644 12.75411155 -34.24206644 12.75411155 -36.4140625 21.3359375 C-24.8640625 21.3359375 -13.3140625 21.3359375 -1.4140625 21.3359375 C-1.4140625 15.03673011 -1.77041985 13.68021234 -5.41796875 9.10546875 C-12.5451047 2.78728365 -22.91606633 3.27138181 -30.2265625 8.8984375 Z " fill="#384751" transform="translate(1160.4140625,367.6640625)"/>
<path d="M0 0 C5.95144404 5.44493817 9.64278777 13.17617699 10.03125 21.25390625 C10.02867188 22.21941406 10.02609375 23.18492187 10.0234375 24.1796875 C10.02730469 25.63955078 10.02730469 25.63955078 10.03125 27.12890625 C9.8984375 29.4921875 9.8984375 29.4921875 8.8984375 30.4921875 C7.45659457 30.61440275 6.00900606 30.66991508 4.56225586 30.69750977 C3.6413768 30.71745499 2.72049774 30.73740021 1.77171326 30.75794983 C0.27016441 30.78301857 0.27016441 30.78301857 -1.26171875 30.80859375 C-2.28132187 30.82937485 -3.30092499 30.85015594 -4.35142517 30.87156677 C-7.62223298 30.93717602 -10.89312387 30.99599984 -14.1640625 31.0546875 C-16.37565978 31.09786192 -18.58724853 31.14147584 -20.79882812 31.18554688 C-26.23298401 31.2928689 -31.66722332 31.39461373 -37.1015625 31.4921875 C-36.89515137 32.04213379 -36.68874023 32.59208008 -36.47607422 33.15869141 C-36.20553223 33.87976074 -35.93499023 34.60083008 -35.65625 35.34375 C-35.38796387 36.05869629 -35.11967773 36.77364258 -34.84326172 37.51025391 C-34.30032599 38.96106111 -33.76208462 40.41362746 -33.2265625 41.8671875 C-31.56726839 44.26394566 -29.86155809 44.63352221 -27.1015625 45.4921875 C-26.0084375 45.8840625 -24.9153125 46.2759375 -23.7890625 46.6796875 C-17.16929386 48.13828059 -11.91139283 47.05731066 -6.1015625 43.4921875 C-5.4209375 42.7496875 -4.7403125 42.0071875 -4.0390625 41.2421875 C-2.1015625 39.4921875 -2.1015625 39.4921875 0.3359375 39.4921875 C3.379144 40.67978028 5.46378148 42.33577789 7.8984375 44.4921875 C5.79901938 50.16061643 0.84694717 53.20273853 -4.3515625 55.7421875 C-13.11385616 59.34072546 -22.05973123 59.08068009 -31.1015625 56.4921875 C-39.87605145 52.72286478 -44.55965635 47.23707897 -48.9765625 38.9921875 C-51.63592099 30.99828252 -51.45104092 19.29663709 -48.265625 11.51171875 C-44.00906505 4.12701575 -38.0192476 -1.32368061 -30.1015625 -4.5078125 C-19.83024462 -7.07979032 -8.76803485 -6.29082054 0 0 Z M-33.69140625 9.91015625 C-36.75268692 13.344557 -37.1015625 15.97016068 -37.1015625 20.4921875 C-25.8815625 20.4921875 -14.6615625 20.4921875 -3.1015625 20.4921875 C-3.68994623 13.120585 -3.68994623 13.120585 -7.43359375 7.74609375 C-15.9828269 1.31915267 -26.20742154 2.90350997 -33.69140625 9.91015625 Z " fill="#33434E" transform="translate(1272.1015625,368.5078125)"/>
<path d="M0 0 C3.96 0 7.92 0 12 0 C12.33 13.2 12.66 26.4 13 40 C15.31 38.02 17.62 36.04 20 34 C26.17093777 30.98309709 33.65568371 31.03411354 40.1875 33 C45.70036331 35.35946077 49.72127722 40.04961359 52.078125 45.48754883 C53.31234119 50.19005633 53.24771695 54.58981692 53.1953125 59.4296875 C53.1924826 60.42001984 53.18965271 61.41035217 53.18673706 62.43069458 C53.1755847 65.57892176 53.15048907 68.72685949 53.125 71.875 C53.11496382 74.01562088 53.10583908 76.15624624 53.09765625 78.296875 C53.07566153 83.53136072 53.04116563 88.76563136 53 94 C49.04 94 45.08 94 41 94 C40.98541748 92.82493896 40.97083496 91.64987793 40.95581055 90.43920898 C40.89760489 86.05739728 40.82037392 81.67608752 40.73754883 77.29467773 C40.70440393 75.40250833 40.67633983 73.51024254 40.65356445 71.61791992 C40.61982579 68.88939546 40.56750135 66.161746 40.51171875 63.43359375 C40.50532883 62.59477158 40.4989389 61.7559494 40.49235535 60.89170837 C40.34264877 54.83889367 39.31220652 50.07020259 35.58203125 45.1171875 C32.43422415 42.89429162 28.75432384 42.89714181 25 43 C20.20873967 44.62722049 17.91551808 46.93909981 15 51 C14.34 51.66 13.68 52.32 13 53 C12.34 51.35 11.68 49.7 11 48 C11.66 48 12.32 48 13 48 C12.505 46.515 12.505 46.515 12 45 C12.33 44.34 12.66 43.68 13 43 C12.34 43 11.68 43 11 43 C11 29.14 11 15.28 11 1 C7.37 1 3.74 1 0 1 C0 0.67 0 0.34 0 0 Z " fill="#31434F" transform="translate(1046,331)"/>
<path d="M0 0 C0 3.96 0 7.92 0 12 C-2.041875 11.9071875 -2.041875 11.9071875 -4.125 11.8125 C-9.59493135 11.82108702 -12.9904871 13.38122572 -17.25 16.8125 C-21.27159289 21.83949111 -21.32278591 27.52914143 -21.4140625 33.6796875 C-21.43342865 34.49245148 -21.4527948 35.30521545 -21.4727478 36.14260864 C-21.53217883 38.71996812 -21.57878181 41.29737315 -21.625 43.875 C-21.66321343 45.63022702 -21.70226709 47.38543597 -21.7421875 49.140625 C-21.83784999 53.42693524 -21.92201449 57.71333319 -22 62 C-25.96 62 -29.92 62 -34 62 C-34 41.87 -34 21.74 -34 1 C-30.37 1 -26.74 1 -23 1 C-22.67 3.64 -22.34 6.28 -22 9 C-21.48050781 8.51789063 -20.96101563 8.03578125 -20.42578125 7.5390625 C-13.43096943 1.20365069 -9.40020125 -0.28060302 0 0 Z " fill="#33434F" transform="translate(1219,363)"/>
<path d="M0 0 C3.3 0 6.6 0 10 0 C9.67 0.66 9.34 1.32 9 2 C8.01 1.67 7.02 1.34 6 1 C6.0707373 1.89178955 6.14147461 2.7835791 6.21435547 3.70239258 C7.00328791 14.71902293 7.15430653 25.68868075 7.13037109 36.73120117 C7.1249387 39.72124132 7.13038857 42.71113584 7.13671875 45.70117188 C7.13605906 47.61718783 7.13478018 49.53320369 7.1328125 51.44921875 C7.13483673 52.33566574 7.13686096 53.22211273 7.13894653 54.13542175 C7.12325305 58.26218028 6.83169911 61.94889677 6 66 C6.33 66.99 6.66 67.98 7 69 C7.33 69 7.66 69 8 69 C8.33 73.29 8.66 77.58 9 82 C9.33 71.44 9.66 60.88 10 50 C10.33 50 10.66 50 11 50 C11 62.21 11 74.42 11 87 C7.7 87 4.4 87 1 87 C-0.08017087 82.63012816 -0.13499895 78.37730438 -0.11352539 73.9050293 C-0.11367142 73.10450638 -0.11381744 72.30398346 -0.1139679 71.47920227 C-0.11327355 68.8441798 -0.10550356 66.20922881 -0.09765625 63.57421875 C-0.09579037 61.74290506 -0.09436727 59.91159086 -0.09336853 58.08027649 C-0.08955672 53.26836765 -0.07973785 48.45648916 -0.06866455 43.64459229 C-0.05842169 38.73116466 -0.05386475 33.81773211 -0.04882812 28.90429688 C-0.03811437 19.26951794 -0.02105401 9.6347615 0 0 Z " fill="#2E3F4B" transform="translate(970,366)"/>
<path d="M0 0 C1.16002413 -0.00233999 1.16002413 -0.00233999 2.34348309 -0.00472724 C4.94337357 -0.0087261 7.54320598 -0.00555175 10.14309692 -0.00241089 C12.00419652 -0.00376553 13.86529584 -0.00554582 15.72639465 -0.00772095 C20.7909846 -0.01229091 25.85555424 -0.01050667 30.92014456 -0.00734186 C36.2245346 -0.00481226 41.52892288 -0.00715783 46.83331299 -0.00872803 C55.75282096 -0.01054955 64.67232067 -0.00814552 73.59182739 -0.00338745 C83.88163256 0.00203847 94.17141786 0.00030463 104.46122253 -0.00521386 C113.3038776 -0.00976541 122.14652672 -0.01038505 130.98918259 -0.00777519 C136.26625844 -0.00622149 141.543325 -0.00599336 146.82040024 -0.00931168 C151.79274984 -0.01221949 156.76507414 -0.01016162 161.73742104 -0.00441742 C163.55415238 -0.00310463 165.37088589 -0.0034585 167.18761635 -0.00568008 C177.00673613 -0.01657163 186.69453246 0.16465681 196.47561646 1.12698364 C192.72372968 3.62824149 189.80277474 3.40592523 185.45960999 3.38095093 C184.22056541 3.3856309 184.22056541 3.3856309 182.95648962 3.39040542 C180.17885785 3.39840519 177.40144335 3.39205411 174.62380981 3.38577271 C172.63648856 3.38848167 170.64916831 3.39204206 168.66184998 3.39639282 C163.2570821 3.40552977 157.85239036 3.40196734 152.44762111 3.39563465 C146.80042101 3.39058212 141.15322757 3.39526395 135.50602722 3.39840698 C126.02248968 3.40204851 116.53898326 3.39724232 107.05545044 3.38772583 C96.07808278 3.3768378 85.10078938 3.38036865 74.12342352 3.39137864 C64.71108899 3.40044246 55.29877687 3.40174133 45.88643938 3.3965013 C40.25926626 3.39337701 34.6321281 3.39298486 29.0049572 3.39957428 C23.71661702 3.40533408 18.428373 3.40137599 13.14004326 3.38978577 C11.19452576 3.38713198 9.24900022 3.38791644 7.30348587 3.3923111 C4.65709288 3.39773968 2.01101213 3.39096541 -0.63536072 3.38095093 C-1.41346023 3.38541237 -2.19155975 3.38987381 -2.99323803 3.39447045 C-8.29608323 3.35528396 -8.29608323 3.35528396 -10.52438354 1.12698364 C-6.95245385 -0.06365959 -3.71661666 -0.01142659 0 0 Z " fill="#3A746F" transform="translate(156.52438354492188,504.8730163574219)"/>
<path d="M0 0 C6.71072516 4.8147582 10.4356884 11.96786161 12 20 C12.09108836 21.89410217 12.13006351 23.79121561 12.125 25.6875 C12.12886719 27.14736328 12.12886719 27.14736328 12.1328125 28.63671875 C12 31 12 31 11 32 C9.52645652 32.09304018 8.04849409 32.11746265 6.57202148 32.11352539 C5.63112167 32.11344986 4.69022186 32.11337433 3.72080994 32.11329651 C2.69790359 32.10813522 1.67499725 32.10297394 0.62109375 32.09765625 C-0.42070541 32.0962413 -1.46250458 32.09482635 -2.53587341 32.09336853 C-5.87811094 32.0877508 -9.22028257 32.0751953 -12.5625 32.0625 C-14.82226466 32.05748728 -17.08203037 32.05292398 -19.34179688 32.04882812 C-24.89455391 32.03777561 -30.44727225 32.02102024 -36 32 C-36 31.67 -36 31.34 -36 31 C-20.82 31 -5.64 31 10 31 C10 29.02 10 27.04 10 25 C3.73 25 -2.54 25 -9 25 C-9 24.67 -9 24.34 -9 24 C-5.7 23.67 -2.4 23.34 1 23 C1 22.34 1 21.68 1 21 C0.67 21.66 0.34 22.32 0 23 C-11.88 23 -23.76 23 -36 23 C-35.505 21.515 -35.505 21.515 -35 20 C-35 20.66 -35 21.32 -35 22 C-23.78 22 -12.56 22 -1 22 C-3.01380804 12.74767473 -3.01380804 12.74767473 -9 8 C-11.32892423 7.16720381 -13.58373748 6.56853236 -16 6 C-15.01 5.67 -14.02 5.34 -13 5 C-13 4.34 -13 3.68 -13 3 C-10.03 3.495 -10.03 3.495 -7 4 C-7.495 3.360625 -7.99 2.72125 -8.5 2.0625 C-10 0 -10 0 -10 -1 C-12.08218362 -1.10832169 -14.16599129 -1.18573541 -16.25 -1.25 C-17.41015625 -1.29640625 -18.5703125 -1.3428125 -19.765625 -1.390625 C-23.65519809 -0.9208698 -24.42385476 0.20367141 -27 3 C-28.32 3 -29.64 3 -31 3 C-30.67 1.35 -30.34 -0.3 -30 -2 C-19.94384665 -5.65678304 -9.47195758 -5.04971871 0 0 Z " fill="#4B5961" transform="translate(1270,367)"/>
<path d="M0 0 C2.31 -2.64 4.62 -5.28 7 -8 C8 -4 8 -4 7.3125 -1.8125 C6 0 6 0 3.875 0.75 C2.946875 0.87375 2.946875 0.87375 2 1 C2 1.99 2 2.98 2 4 C0.6078125 3.4740625 0.6078125 3.4740625 -0.8125 2.9375 C-3.9802953 1.67617372 -3.9802953 1.67617372 -7 3 C-7 3.66 -7 4.32 -7 5 C-8.60681641 5.07347656 -8.60681641 5.07347656 -10.24609375 5.1484375 C-11.64325639 5.22345294 -13.0403905 5.2990013 -14.4375 5.375 C-15.14455078 5.4059375 -15.85160156 5.436875 -16.58007812 5.46875 C-18.39239188 5.57280629 -20.19817988 5.77919892 -22 6 C-22.33 6.66 -22.66 7.32 -23 8 C-26.05917167 7.66009204 -27.80401508 7.14301602 -30.3125 5.3125 C-32 3 -32 3 -32.5625 0 C-32 -3 -32 -3 -29.75 -5.3125 C-19.55058507 -11.57123189 -8.79683928 -6.07400807 0 0 Z " fill="#15645C" transform="translate(319,363)"/>
<path d="M0 0 C0.66 0.33 1.32 0.66 2 1 C2 70.63 2 140.26 2 212 C1.67 212 1.34 212 1 212 C0.84356663 201.74819331 0.69548827 191.49629926 0.5570364 181.24423313 C0.49245248 176.47973243 0.42537398 171.71529886 0.35180664 166.95092773 C-0.01184191 143.26580564 0.00034733 119.6701872 1 96 C0.34 95.67 -0.32 95.34 -1 95 C-0.83766876 94.16473785 -0.67533752 93.32947571 -0.50808716 92.46890259 C0.03510321 88.76033714 0.12711303 85.24555313 0.12939453 81.49755859 C0.13114685 80.77158981 0.13289917 80.04562103 0.13470459 79.2976532 C0.1390812 76.91455649 0.13620056 74.53153487 0.1328125 72.1484375 C0.1334866 70.48507676 0.13445751 68.82171612 0.13571167 67.15835571 C0.13718284 63.68010516 0.13505222 60.20188036 0.13037109 56.72363281 C0.12466526 52.26707098 0.12796189 47.81056927 0.13394356 43.35400963 C0.13755727 39.92251126 0.136407 36.49102715 0.13381577 33.05952835 C0.1331492 31.41609312 0.13396547 29.77265659 0.13629532 28.12922287 C0.13883608 25.83399779 0.13496153 23.53887017 0.12939453 21.24365234 C0.12859894 19.93826508 0.12780334 18.63287781 0.12698364 17.28793335 C0.02372221 14.61422913 -0.27969498 12.54069657 -1 10 C-0.91760895 8.245868 -0.76901219 6.49388075 -0.5625 4.75 C-0.46066406 3.85796875 -0.35882813 2.9659375 -0.25390625 2.046875 C-0.17011719 1.37140625 -0.08632813 0.6959375 0 0 Z " fill="#1B5952" transform="translate(370,276)"/>
<path d="M0 0 C6.27 0 12.54 0 19 0 C19 2.64 19 5.28 19 8 C18.67 7.34 18.34 6.68 18 6 C12.72 6 7.44 6 2 6 C2.00523682 7.17393311 2.01047363 8.34786621 2.01586914 9.55737305 C2.03416552 13.97256691 2.04552073 18.38775752 2.05493164 22.80297852 C2.05991616 24.70272386 2.06670619 26.60246546 2.07543945 28.50219727 C2.12268245 39.05405987 2.0864079 49.49234122 1 60 C0.67 60 0.34 60 0 60 C0 40.2 0 20.4 0 0 Z " fill="#2E3C47" transform="translate(575,362)"/>
<path d="M0 0 C2 1 2 1 2.61790466 2.77593994 C3.01616643 5.09409985 3.12013126 7.23327205 3.11352539 9.58496094 C3.11344986 10.48559265 3.11337433 11.38622437 3.11329651 12.31414795 C3.10813522 13.27782288 3.10297394 14.2414978 3.09765625 15.234375 C3.0962413 16.22753723 3.09482635 17.22069946 3.09336853 18.24395752 C3.08777588 21.41266912 3.0752247 24.58130979 3.0625 27.75 C3.05748405 29.89973856 3.05292131 32.04947823 3.04882812 34.19921875 C3.03780885 39.46617312 3.02054923 44.73307454 3 50 C-3.27 50 -9.54 50 -16 50 C-16 49.67 -16 49.34 -16 49 C-11.05 49 -6.1 49 -1 49 C-1.00785522 46.98664551 -1.00785522 46.98664551 -1.01586914 44.93261719 C-1.03396864 39.95296902 -1.04545016 34.97332377 -1.05493164 29.99365234 C-1.05996052 27.83837393 -1.06678442 25.68309893 -1.07543945 23.52783203 C-1.08756821 20.43000446 -1.09324278 17.33222199 -1.09765625 14.234375 C-1.10281754 13.27070007 -1.10797882 12.30702515 -1.11329651 11.31414795 C-1.11337204 10.41351624 -1.11344757 9.51288452 -1.11352539 8.58496094 C-1.115746 7.79442322 -1.11796661 7.0038855 -1.12025452 6.18939209 C-1.00026577 4.00483874 -0.60355197 2.09807318 0 0 Z " fill="#2C3C46" transform="translate(633,374)"/>
<path d="M0 0 C3.96 0 7.92 0 12 0 C12.33 13.2 12.66 26.4 13 40 C14.65 38.68 16.3 37.36 18 36 C20.45703125 35.828125 20.45703125 35.828125 22.8125 36.25 C23.60269531 36.37890625 24.39289063 36.5078125 25.20703125 36.640625 C25.79871094 36.75921875 26.39039063 36.8778125 27 37 C27.33 38.32 27.66 39.64 28 41 C27.39671875 41.30292969 26.7934375 41.60585938 26.171875 41.91796875 C21.42821832 44.40456298 18.06218242 46.46797001 15 51 C14.34 51.66 13.68 52.32 13 53 C12.34 51.35 11.68 49.7 11 48 C11.66 48 12.32 48 13 48 C12.505 46.515 12.505 46.515 12 45 C12.33 44.34 12.66 43.68 13 43 C12.34 43 11.68 43 11 43 C11 29.14 11 15.28 11 1 C7.37 1 3.74 1 0 1 C0 0.67 0 0.34 0 0 Z " fill="#45555E" transform="translate(1046,331)"/>
<path d="M0 0 C0.33 0 0.66 0 1 0 C1.19718727 4.56213543 1.3810637 9.12471314 1.5625 13.6875 C1.61857422 14.98107422 1.67464844 16.27464844 1.73242188 17.60742188 C1.78076172 18.85458984 1.82910156 20.10175781 1.87890625 21.38671875 C1.9260376 22.53358154 1.97316895 23.68044434 2.02172852 24.86206055 C2 28 2 28 1.44506836 30.72583008 C0.77664119 33.15083492 0.77664119 33.15083492 2 36 C2.33 36 2.66 36 3 36 C3.33 40.29 3.66 44.58 4 49 C4.33 38.44 4.66 27.88 5 17 C5.33 17 5.66 17 6 17 C6 29.21 6 41.42 6 54 C3.36 54 0.72 54 -2 54 C-2 51.45617601 -1.79340497 49.1433927 -1.5 46.625 C-0.97222728 41.06872609 -0.95940687 35.5739435 -1 30 C-1.07237884 19.96738785 -0.64064344 10.0100537 0 0 Z " fill="#253642" transform="translate(975,399)"/>
<path d="M0 0 C0.90105469 0.01804687 1.80210937 0.03609375 2.73046875 0.0546875 C3.41753906 0.07789063 4.10460937 0.10109375 4.8125 0.125 C3.3275 2.6 3.3275 2.6 1.8125 5.125 C5.2775 4.63 5.2775 4.63 8.8125 4.125 C8.8125 5.79166667 8.8125 7.45833333 8.8125 9.125 C6.5214095 9.31941368 4.22959663 9.50533135 1.9375 9.6875 C0.02324219 9.84412109 0.02324219 9.84412109 -1.9296875 10.00390625 C-5.1875 10.125 -5.1875 10.125 -7.1875 9.125 C-7.1875 8.465 -7.1875 7.805 -7.1875 7.125 C-7.8475 7.125 -8.5075 7.125 -9.1875 7.125 C-8.875 4.75 -8.875 4.75 -8.1875 2.125 C-4.87379 -0.08414 -3.8428979 -0.09981553 0 0 Z " fill="#344450" transform="translate(998.1875,363.875)"/>
<path d="M0 0 C0.66 0 1.32 0 2 0 C4.16703183 4.33776167 4.18883544 8.19259936 3.9765625 12.92578125 C3.95153656 13.67337204 3.92651062 14.42096283 3.90072632 15.19120789 C3.81893204 17.56546141 3.72218881 19.93883179 3.625 22.3125 C3.56671879 23.92769897 3.50941643 25.54293358 3.453125 27.15820312 C3.31341441 31.1059714 3.16029968 35.05301631 3 39 C2.01 39 1.02 39 0 39 C0 26.13 0 13.26 0 0 Z " fill="#2B3D4A" transform="translate(664,384)"/>
<path d="M0 0 C1.60294922 0.01353516 1.60294922 0.01353516 3.23828125 0.02734375 C4.04652344 0.03894531 4.85476563 0.05054688 5.6875 0.0625 C5.6875 2.7025 5.6875 5.3425 5.6875 8.0625 C5.3575 7.4025 5.0275 6.7425 4.6875 6.0625 C-0.5925 6.0625 -5.8725 6.0625 -11.3125 6.0625 C-11.3125 4.4125 -11.3125 2.7625 -11.3125 1.0625 C-7.47525828 0.15836327 -3.93747726 -0.04326898 0 0 Z " fill="#30414E" transform="translate(661.3125,361.9375)"/>
<path d="M0 0 C0.33 0 0.66 0 1 0 C1 12.54 1 25.08 1 38 C-5.93 38 -12.86 38 -20 38 C-19.67 32.72 -19.34 27.44 -19 22 C-18.67 22 -18.34 22 -18 22 C-18 26.62 -18 31.24 -18 36 C-12.39 36 -6.78 36 -1 36 C-0.67 24.12 -0.34 12.24 0 0 Z " fill="#5B656C" transform="translate(595,387)"/>
<path d="M0 0 C1.73056641 -0.04253906 1.73056641 -0.04253906 3.49609375 -0.0859375 C6.5625 0.375 6.5625 0.375 8.47265625 2.2734375 C9.5625 4.375 9.5625 4.375 9.5625 6.375 C6.5925 5.88 6.5925 5.88 3.5625 5.375 C3.5625 6.035 3.5625 6.695 3.5625 7.375 C0.5925 7.375 -2.3775 7.375 -5.4375 7.375 C-5.7675 6.055 -6.0975 4.735 -6.4375 3.375 C-7.0975 3.045 -7.7575 2.715 -8.4375 2.375 C-5.6645481 -0.3979519 -3.86486269 0.04308654 0 0 Z " fill="#2B3C48" transform="translate(1253.4375,364.625)"/>
<path d="M0 0 C0.99 0 1.98 0 3 0 C3.66 0.66 4.32 1.32 5 2 C4.98251781 4.91952568 4.86055367 7.72297885 4.625 10.625 C4.56828125 11.42679687 4.5115625 12.22859375 4.453125 13.0546875 C4.31152018 15.03715498 4.15697741 17.01869051 4 19 C3.01 18.67 2.02 18.34 1 18 C0.67 18.66 0.34 19.32 0 20 C-1.02345486 16.62097444 -1.1338035 13.52139987 -1.125 10 C-1.12886719 8.453125 -1.12886719 8.453125 -1.1328125 6.875 C-1.01863671 4.40342991 -0.71350656 2.3557042 0 0 Z " fill="#266C64" transform="translate(194,374)"/>
<path d="M0 0 C2.9719385 1.12451727 5.33440687 2.22293791 8 4 C8 4.66 8 5.32 8 6 C16.31697998 8.15625407 23.51328225 8.41445296 32 7 C32 7.66 32 8.32 32 9 C26.56342312 12.33425528 20.12890139 11.66044196 14 11 C10.34523229 9.76270885 7.20761738 8.13240481 4 6 C3.24976563 5.51144531 2.49953125 5.02289063 1.7265625 4.51953125 C1.15679687 4.01808594 0.58703125 3.51664062 0 3 C0 2.01 0 1.02 0 0 Z " fill="#26635C" transform="translate(273,401)"/>
<path d="M0 0 C1.25296875 0.23203125 2.5059375 0.4640625 3.796875 0.703125 C5.69179687 1.03570312 5.69179687 1.03570312 7.625 1.375 C9.07132813 1.66117187 9.07132813 1.66117187 10.546875 1.953125 C9.886875 3.273125 9.226875 4.593125 8.546875 5.953125 C7.556875 5.953125 6.566875 5.953125 5.546875 5.953125 C5.546875 6.613125 5.546875 7.273125 5.546875 7.953125 C6.206875 8.283125 6.866875 8.613125 7.546875 8.953125 C4.576875 8.953125 1.606875 8.953125 -1.453125 8.953125 C-0.133125 8.623125 1.186875 8.293125 2.546875 7.953125 C2.216875 6.633125 1.886875 5.313125 1.546875 3.953125 C-1.423125 3.953125 -4.393125 3.953125 -7.453125 3.953125 C-5.01580984 0.7279908 -4.14102436 -0.056213 0 0 Z " fill="#2A3944" transform="translate(1071.453125,364.046875)"/>
<path d="M0 0 C0.66 0 1.32 0 2 0 C3.0592918 3.17787541 3.11458939 5.42588943 3.09765625 8.76171875 C3.09443359 9.87998047 3.09121094 10.99824219 3.08789062 12.15039062 C3.07951172 13.31763672 3.07113281 14.48488281 3.0625 15.6875 C3.05798828 16.86634766 3.05347656 18.04519531 3.04882812 19.25976562 C3.03703273 22.17322789 3.0205727 25.08658863 3 28 C1.35 27.67 -0.3 27.34 -2 27 C-2 25.68 -2 24.36 -2 23 C-1.34 23 -0.68 23 0 23 C0.33 17.39 0.66 11.78 1 6 C0.01 6.33 -0.98 6.66 -2 7 C-1.125 1.125 -1.125 1.125 0 0 Z " fill="#115D54" transform="translate(197,369)"/>
<path d="M0 0 C3.3 0 6.6 0 10 0 C9.67 0.66 9.34 1.32 9 2 C8.01 1.67 7.02 1.34 6 1 C6.0721875 2.01578125 6.144375 3.0315625 6.21875 4.078125 C6.67185511 10.67064366 7.08925125 17.26822629 7.25 23.875 C7.27578125 24.82117188 7.3015625 25.76734375 7.328125 26.7421875 C7.16570313 27.85980469 7.16570313 27.85980469 7 29 C6.01 29.66 5.02 30.32 4 31 C4 21.1 4 11.2 4 1 C3.01 1 2.02 1 1 1 C1 3.64 1 6.28 1 9 C0.67 9 0.34 9 0 9 C0 6.03 0 3.06 0 0 Z " fill="#243542" transform="translate(970,366)"/>
<path d="M0 0 C0.66666667 2 1.33333333 4 2 6 C2.33 6.33 2.66 6.66 3 7 C3.07205511 8.68608966 3.08386068 10.37500659 3.0625 12.0625 C3.05347656 12.98160156 3.04445313 13.90070313 3.03515625 14.84765625 C3.02355469 15.55792969 3.01195312 16.26820313 3 17 C2.34 17 1.68 17 1 17 C1 19.64 1 22.28 1 25 C0.34 24.67 -0.32 24.34 -1 24 C-1.02887236 20.18751574 -1.04675492 16.3750593 -1.0625 12.5625 C-1.07087891 11.47388672 -1.07925781 10.38527344 -1.08789062 9.26367188 C-1.09111328 8.22919922 -1.09433594 7.19472656 -1.09765625 6.12890625 C-1.10289307 5.17056885 -1.10812988 4.21223145 -1.11352539 3.22485352 C-1 1 -1 1 0 0 Z " fill="#273843" transform="translate(433,368)"/>
<path d="M0 0 C0.66 0 1.32 0 2 0 C5.49980425 5.24970637 5.30515827 11.8304958 5 18 C3.66668361 20.93329605 2.54902233 21.94834788 0 24 C-1.37365952 21.25268096 -0.34512745 19.79544886 0.515625 16.9921875 C1.87754062 11.39076036 0.93384275 5.60305649 0 0 Z " fill="#2B6C65" transform="translate(333,392)"/>
<path d="M0 0 C0.98484375 0.10183594 1.9696875 0.20367187 2.984375 0.30859375 C3.73203125 0.39238281 4.4796875 0.47617187 5.25 0.5625 C2.67820837 3.13429163 1.50402058 2.81202025 -2.0625 2.9375 C-6.82410022 3.28651782 -9.42209511 3.9125398 -12.75 7.5625 C-13.41 8.5525 -14.07 9.5425 -14.75 10.5625 C-15.0625 7.8125 -15.0625 7.8125 -14.75 4.5625 C-10.11627281 -0.19994183 -6.38113057 -0.68369256 0 0 Z " fill="#3A716A" transform="translate(301.75,355.4375)"/>
<path d="M0 0 C13.86 0.99 13.86 0.99 28 2 C25.44728343 4.55271657 23.72119073 4.28414902 20.23413086 4.328125 C19.09729858 4.32039063 19.09729858 4.32039063 17.9375 4.3125 C16.78809937 4.31056641 16.78809937 4.31056641 15.61547852 4.30859375 C9.88807285 4.21144704 5.28771368 3.30736597 0 1 C0 0.67 0 0.34 0 0 Z " fill="#475056" transform="translate(443,423)"/>
<path d="M0 0 C5.46864457 1.01591421 10.76390013 2.07091057 16 4 C15.67 4.66 15.34 5.32 15 6 C11.7 6 8.4 6 5 6 C4.67 5.34 4.34 4.68 4 4 C1.97536745 3.34786708 1.97536745 3.34786708 0 3 C0 2.01 0 1.02 0 0 Z " fill="#2F7068" transform="translate(284,392)"/>
<path d="M0 0 C4.95 0 9.9 0 15 0 C15 4.62 15 9.24 15 14 C14.67 14 14.34 14 14 14 C13.67 12.02 13.34 10.04 13 8 C12.34 8 11.68 8 11 8 C11 7.34 11 6.68 11 6 C9.02 6 7.04 6 5 6 C5 5.67 5 5.34 5 5 C7.31 4.34 9.62 3.68 12 3 C12 2.34 12 1.68 12 1 C8.04 1 4.08 1 0 1 C0 0.67 0 0.34 0 0 Z " fill="#1F2C34" transform="translate(877,362)"/>
<path d="M0 0 C4.70731802 5.88414753 6.35578437 9.52852825 6 17 C5.01 16.67 4.02 16.34 3 16 C3 15.01 3 14.02 3 13 C2.34 13 1.68 13 1 13 C0.67 8.71 0.34 4.42 0 0 Z " fill="#3C4852" transform="translate(559,373)"/>
<path d="M0 0 C-0.66 1.98 -1.32 3.96 -2 6 C-4.875 5.75 -4.875 5.75 -8 5 C-9.375 2.9375 -9.375 2.9375 -10 1 C-3.71428571 -1.42857143 -3.71428571 -1.42857143 0 0 Z " fill="#2A3B46" transform="translate(1154,365)"/>
<path d="M0 0 C3.99455527 0.61454696 6.74466336 2.70646737 10 5 C7.25 9.875 7.25 9.875 5 11 C4.855625 10.401875 4.71125 9.80375 4.5625 9.1875 C4.1127561 7.43849596 3.57107659 5.71322977 3 4 C1.35 3.67 -0.3 3.34 -2 3 C-1.34 2.01 -0.68 1.02 0 0 Z " fill="#45525A" transform="translate(1160,408)"/>
<path d="M0 0 C1.19109375 0.00773437 1.19109375 0.00773437 2.40625 0.015625 C3.2003125 0.01046875 3.994375 0.0053125 4.8125 0 C6.90625 0.265625 6.90625 0.265625 8.90625 2.265625 C10.88981483 2.97970834 12.88940437 3.65180242 14.90625 4.265625 C13.390625 5.3828125 13.390625 5.3828125 10.90625 6.265625 C8.20346652 5.76532253 5.7670265 5.18520915 3.15625 4.390625 C2.45886719 4.19082031 1.76148438 3.99101562 1.04296875 3.78515625 C-0.67302505 3.2915142 -2.3839378 2.78026997 -4.09375 2.265625 C-2.09375 0.265625 -2.09375 0.265625 0 0 Z " fill="#296862" transform="translate(301.09375,369.734375)"/>
<path d="M0 0 C4.05281712 1.22527029 7.44360764 2.69880494 11 5 C11 3.35 11 1.7 11 0 C11.33 0 11.66 0 12 0 C12 4.95 12 9.9 12 15 C11.67 15 11.34 15 11 15 C10.67 13.02 10.34 11.04 10 9 C9.01 9.495 9.01 9.495 8 10 C7.67 8.02 7.34 6.04 7 4 C5.68 4 4.36 4 3 4 C3 3.34 3 2.68 3 2 C2.01 2 1.02 2 0 2 C0 1.34 0 0.68 0 0 Z " fill="#677378" transform="translate(836,362)"/>
<path d="M0 0 C2.64 0 5.28 0 8 0 C7.67 0.66 7.34 1.32 7 2 C7.66 2.66 8.32 3.32 9 4 C5.85069107 5.04976964 3.61185544 5.10131595 0.3125 5.0625 C-0.68136719 5.05347656 -1.67523437 5.04445313 -2.69921875 5.03515625 C-3.83810547 5.01775391 -3.83810547 5.01775391 -5 5 C-5 4.34 -5 3.68 -5 3 C-3.02 2.67 -1.04 2.34 1 2 C0.67 1.34 0.34 0.68 0 0 Z " fill="#2B3A45" transform="translate(750,411)"/>
<path d="M0 0 C3.36720387 1.39332574 4.9859524 2.9789286 7 6 C6.01 6 5.02 6 4 6 C3.030625 6.20625 2.06125 6.4125 1.0625 6.625 C-2.18073883 7.02213128 -3.32333988 6.75012392 -6 5 C-4.02 3.35 -2.04 1.7 0 0 Z " fill="#3D4C55" transform="translate(480,398)"/>
<path d="M0 0 C6.80203375 -0.37634203 11.75690073 0.22528921 18 3 C18 3.33 18 3.66 18 4 C11.4294834 4.24794402 5.43028541 3.32388229 -1 2 C-0.67 1.34 -0.34 0.68 0 0 Z " fill="#424D54" transform="translate(1072,363)"/>
<path d="M0 0 C6.1678506 -0.38549066 11.51353769 -0.07808566 17 3 C19 5.1875 19 5.1875 20 7 C19.01 7 18.02 7 17 7 C16.67 6.01 16.34 5.02 16 4 C15.195625 4.020625 14.39125 4.04125 13.5625 4.0625 C11 4 11 4 10 3 C8.15108054 2.76636119 6.29511969 2.58696365 4.4375 2.4375 C3.42558594 2.35371094 2.41367188 2.26992188 1.37109375 2.18359375 C0.19740234 2.09271484 0.19740234 2.09271484 -1 2 C-0.67 1.34 -0.34 0.68 0 0 Z " fill="#356B66" transform="translate(211,359)"/>
<path d="M0 0 C0 0.66 0 1.32 0 2 C1.65 1.67 3.3 1.34 5 1 C5 1.99 5 2.98 5 4 C5.66 4.66 6.32 5.32 7 6 C6.01 6.495 6.01 6.495 5 7 C2.50390625 6.07421875 2.50390625 6.07421875 -0.4375 4.6875 C-1.88962891 4.01267578 -1.88962891 4.01267578 -3.37109375 3.32421875 C-6 2 -6 2 -9 0 C-5.93109813 -1.53445094 -3.29905734 -0.54984289 0 0 Z " fill="#326D67" transform="translate(324,336)"/>
<path d="M0 0 C0.33 0 0.66 0 1 0 C1 4.95 1 9.9 1 15 C0.01 15.495 0.01 15.495 -1 16 C-1.99 15.67 -2.98 15.34 -4 15 C-4 12.69 -4 10.38 -4 8 C-3.34 8 -2.68 8 -2 8 C-1.34 5.36 -0.68 2.72 0 0 Z " fill="#6B767E" transform="translate(892,362)"/>
<path d="M0 0 C2.64 0.66 5.28 1.32 8 2 C8.33 1.34 8.66 0.68 9 0 C9 1.32 9 2.64 9 4 C9.66 4 10.32 4 11 4 C11 4.99 11 5.98 11 7 C6.4923533 6.46968862 3.58045212 4.74778884 0 2 C0 1.34 0 0.68 0 0 Z " fill="#2D6860" transform="translate(199,401)"/>
<path d="M0 0 C0.33 0 0.66 0 1 0 C1 6.93 1 13.86 1 21 C0.01 20.67 -0.98 20.34 -2 20 C-1.814375 18.96875 -1.62875 17.9375 -1.4375 16.875 C-1.02237276 13.19815877 -1.37405292 10.5991957 -2 7 C-1.63763218 4.34263601 -1.19606192 2.39212383 0 0 Z " fill="#0D5E55" transform="translate(370,314)"/>
<path d="M0 0 C0.66 0 1.32 0 2 0 C2.08082094 1.95766281 2.13910778 3.91626728 2.1875 5.875 C2.23970703 7.51082031 2.23970703 7.51082031 2.29296875 9.1796875 C2.19628906 10.11039062 2.09960938 11.04109375 2 12 C1.01 12.66 0.02 13.32 -1 14 C-1.02685938 11.85423363 -1.04633088 9.70837355 -1.0625 7.5625 C-1.07410156 6.36753906 -1.08570313 5.17257812 -1.09765625 3.94140625 C-1 1 -1 1 0 0 Z " fill="#1E2C34" transform="translate(1022,387)"/>
<path d="M0 0 C3.3 0 6.6 0 10 0 C10 3.3 10 6.6 10 10 C9.67 10 9.34 10 9 10 C9 7.36 9 4.72 9 2 C6.69 2 4.38 2 2 2 C2 3.98 2 5.96 2 8 C0 5 0 5 0 0 Z " fill="#192932" transform="translate(1185,365)"/>
<path d="M0 0 C0.33 0.99 0.66 1.98 1 3 C-0.36328125 5.04296875 -0.36328125 5.04296875 -2.3125 7.1875 C-2.94800781 7.90292969 -3.58351563 8.61835938 -4.23828125 9.35546875 C-6 11 -6 11 -8 11 C-8 11.99 -8 12.98 -8 14 C-8.66 14 -9.32 14 -10 14 C-8.34315356 7.67385905 -5.47690984 3.65127323 0 0 Z " fill="#3F4E55" transform="translate(509,366)"/>
<path d="M0 0 C0 4.09067311 -1.56595708 6.7628885 -4 10 C-6.125 11.0625 -6.125 11.0625 -8 11 C-8.66 10.34 -9.32 9.68 -10 9 C-7.86474649 6.8121864 -5.6425721 4.79086311 -3.3125 2.8125 C-2.68988281 2.28269531 -2.06726563 1.75289063 -1.42578125 1.20703125 C-0.95527344 0.80871094 -0.48476563 0.41039062 0 0 Z " fill="#2F6D66" transform="translate(328,421)"/>
<path d="M0 0 C0 0.99 0 1.98 0 3 C1.65 3.33 3.3 3.66 5 4 C5 4.33 5 4.66 5 5 C1.7 5 -1.6 5 -5 5 C-5.33 3.68 -5.66 2.36 -6 1 C-4 0 -4 0 0 0 Z " fill="#313E49" transform="translate(811,363)"/>
<path d="M0 0 C0 2.97 0 5.94 0 9 C-0.66 9 -1.32 9 -2 9 C-2.33 8.34 -2.66 7.68 -3 7 C-3.99 8.32 -4.98 9.64 -6 11 C-6 9.02 -6 7.04 -6 5 C-5.01 4.67 -4.02 4.34 -3 4 C-3 3.01 -3 2.02 -3 1 C-1 0 -1 0 0 0 Z " fill="#2C3C47" transform="translate(504,376)"/>
<path d="M0 0 C2.51005664 3.76508495 2.0258295 6.39461609 1.625 10.6875 C1.56828125 11.38939453 1.5115625 12.09128906 1.453125 12.81445312 C1.31195359 14.54380285 1.15728041 16.27204088 1 18 C0.67 18 0.34 18 0 18 C-0.33 14.7 -0.66 11.4 -1 8 C-1.66 8.66 -2.32 9.32 -3 10 C-3 8.35 -3 6.7 -3 5 C-2.34 5 -1.68 5 -1 5 C-0.67 3.35 -0.34 1.7 0 0 Z " fill="#387A71" transform="translate(259,352)"/>
<path d="M0 0 C5.61 0 11.22 0 17 0 C16.67 0.66 16.34 1.32 16 2 C13.45058627 2.31241371 10.99638487 2.51303421 8.4375 2.625 C7.37112305 2.68300781 7.37112305 2.68300781 6.28320312 2.7421875 C4.52257575 2.83671783 2.76132272 2.91945817 1 3 C0.67 2.01 0.34 1.02 0 0 Z " fill="#095B53" transform="translate(295,368)"/>
<path d="M0 0 C-0.625 1.9375 -0.625 1.9375 -2 4 C-5.125 4.75 -5.125 4.75 -8 5 C-7.625 2.5625 -7.625 2.5625 -7 0 C-4.3333581 -1.33332095 -2.83319697 -0.67102033 0 0 Z " fill="#34424B" transform="translate(1247,365)"/>
<path d="M0 0 C-1.35021826 4.41889613 -3.26115668 6.34345343 -7 9 C-7 7.68 -7 6.36 -7 5 C-6.34 4.67 -5.68 4.34 -5 4 C-5 3.01 -5 2.02 -5 1 C-3 0 -3 0 0 0 Z " fill="#32756F" transform="translate(370,494)"/>
<path d="M0 0 C0.474375 0.70125 0.94875 1.4025 1.4375 2.125 C4.80673433 5.90511656 8.72340718 8.34083651 13 11 C12.01 11.33 11.02 11.66 10 12 C7.5625 10.6875 7.5625 10.6875 5 9 C4.2575 8.7525 3.515 8.505 2.75 8.25 C1 7 1 7 0.25 3.375 C0.1675 2.26125 0.085 1.1475 0 0 Z " fill="#376D68" transform="translate(262,377)"/>
<path d="M0 0 C0.99 0.66 1.98 1.32 3 2 C2.01 2.33 1.02 2.66 0 3 C-0.60061233 4.90178785 -0.60061233 4.90178785 -1 7 C-1.99 8.485 -1.99 8.485 -3 10 C-3.99 9.67 -4.98 9.34 -6 9 C-4.47291037 5.56404834 -2.40072955 2.88087546 0 0 Z " fill="#34736D" transform="translate(247,348)"/>
<path d="M0 0 C0.82945822 2.32248302 1.06976385 3.70350362 0.5 6.125 C-1.78449568 8.98061959 -4.53130392 9.22917865 -8 10 C-7.59007812 9.52949219 -7.18015625 9.05898438 -6.7578125 8.57421875 C-6.21898437 7.95160156 -5.68015625 7.32898438 -5.125 6.6875 C-4.59132813 6.07261719 -4.05765625 5.45773437 -3.5078125 4.82421875 C-1.8359553 2.86501788 -1.8359553 2.86501788 0 0 Z " fill="#3B726C" transform="translate(326,355)"/>
<path d="M0 0 C0.66 0 1.32 0 2 0 C1.5359375 1.918125 1.5359375 1.918125 1.0625 3.875 C-0.06114833 8.88758722 -0.59422581 13.88510956 -1 19 C-1.33 19 -1.66 19 -2 19 C-2.05451714 16.95863605 -2.09302485 14.91684144 -2.125 12.875 C-2.14820313 11.73804688 -2.17140625 10.60109375 -2.1953125 9.4296875 C-1.99672109 5.94242233 -1.2524801 3.2446138 0 0 Z " fill="#578B85" transform="translate(165,363)"/>
<path d="M0 0 C3.53372712 1.96318174 6.24479785 4.04070881 9 7 C8.34 8.32 7.68 9.64 7 11 C6.67 9.35 6.34 7.7 6 6 C5.071875 5.9071875 5.071875 5.9071875 4.125 5.8125 C2 5 2 5 0.75 2.4375 C0.5025 1.633125 0.255 0.82875 0 0 Z " fill="#317069" transform="translate(360,263)"/>
<path d="M0 0 C0.33 0 0.66 0 1 0 C1.33 3.3 1.66 6.6 2 10 C0.68 10.33 -0.64 10.66 -2 11 C-3.125 6.25 -3.125 6.25 -2 4 C-1.34 4 -0.68 4 0 4 C0 2.68 0 1.36 0 0 Z " fill="#45545B" transform="translate(436,381)"/>
<path d="M0 0 C0.33 0.99 0.66 1.98 1 3 C-2.81489674 4.46726798 -5.29011622 3.43336419 -9 2 C-5.5647952 -0.29013653 -4.014669 -0.17842973 0 0 Z " fill="#2D3C48" transform="translate(938,422)"/>
<path d="M0 0 C0.99 0.33 1.98 0.66 3 1 C3 2.65 3 4.3 3 6 C2.01 6.495 2.01 6.495 1 7 C0.67 6.34 0.34 5.68 0 5 C-0.99 5.66 -1.98 6.32 -3 7 C-2.25 2.25 -2.25 2.25 0 0 Z " fill="#2F3E44" transform="translate(1229,373)"/>
<path d="M0 0 C0 1.32 0 2.64 0 4 C-2.60582371 4.93065133 -3.64198224 5.14917407 -6.25 4.0625 C-6.8275 3.711875 -7.405 3.36125 -8 3 C-5.53387212 -0.1151089 -3.89156016 -0.31553191 0 0 Z " fill="#293945" transform="translate(1007,368)"/>
<path d="M0 0 C0.33 0 0.66 0 1 0 C1.33 1.98 1.66 3.96 2 6 C2.61875 5.34 3.2375 4.68 3.875 4 C6 2 6 2 8 2 C6.70700306 4.88437779 5.34058637 6.87219421 3 9 C2.01 8.67 1.02 8.34 0 8 C0 5.36 0 2.72 0 0 Z " fill="#4C5860" transform="translate(667,362)"/>
<path d="M0 0 C5.03985731 0.44469329 7.37634988 2.71343362 11 6 C10 8 10 8 8 9 C7.59007812 8.51789063 7.18015625 8.03578125 6.7578125 7.5390625 C5.94957031 6.59160156 5.94957031 6.59160156 5.125 5.625 C4.59132813 4.99851562 4.05765625 4.37203125 3.5078125 3.7265625 C2.38567993 2.44163349 1.20628025 1.20628025 0 0 Z " fill="#487C74" transform="translate(322,380)"/>
<path d="M0 0 C0 0.99 0 1.98 0 3 C-0.66 3 -1.32 3 -2 3 C-2 3.99 -2 4.98 -2 6 C-2.66 6 -3.32 6 -4 6 C-4.33 6.99 -4.66 7.98 -5 9 C-5.66 9 -6.32 9 -7 9 C-4.4 0 -4.4 0 0 0 Z " fill="#387366" transform="translate(135,266)"/>
<path d="M0 0 C0 0.66 0 1.32 0 2 C-0.66 2 -1.32 2 -2 2 C-2.43386092 5.87797662 -2.43386092 5.87797662 -0.5 7.75 C-0.005 8.1625 0.49 8.575 1 9 C-1.375 8.75 -1.375 8.75 -4 8 C-5.3125 5.9375 -5.3125 5.9375 -6 4 C-2.25 0 -2.25 0 0 0 Z " fill="#273641" transform="translate(1129,414)"/>
<path d="M0 0 C0.99 0 1.98 0 3 0 C3.33 0.66 3.66 1.32 4 2 C4.99 2.66 5.98 3.32 7 4 C6.34 4 5.68 4 5 4 C5 4.66 5 5.32 5 6 C3.02 5.34 1.04 4.68 -1 4 C-0.67 2.68 -0.34 1.36 0 0 Z " fill="#293B48" transform="translate(1160,412)"/>
<path d="M0 0 C1.258125 -0.04125 2.51625 -0.0825 3.8125 -0.125 C4.52019531 -0.14820313 5.22789062 -0.17140625 5.95703125 -0.1953125 C8 0 8 0 11 2 C6.71 2.66 2.42 3.32 -2 4 C-2 3.34 -2 2.68 -2 2 C-1.34 2 -0.68 2 0 2 C0 1.34 0 0.68 0 0 Z " fill="#3E7B72" transform="translate(282,333)"/>
<path d="M0 0 C0.66 0.66 1.32 1.32 2 2 C1.75558954 4.52557477 1.17639341 5.7852602 -0.4375 7.75 C-2 9 -2 9 -4 9 C-2.94124926 5.59687262 -1.99097846 2.98646769 0 0 Z " fill="#404C53" transform="translate(725,372)"/>
<path d="M0 0 C2.31 0 4.62 0 7 0 C5.515 2.475 5.515 2.475 4 5 C2.35 4.67 0.7 4.34 -1 4 C-0.67 2.68 -0.34 1.36 0 0 Z " fill="#273743" transform="translate(996,364)"/>
<path d="M0 0 C0 0.66 0 1.32 0 2 C-1.65385233 3.34919532 -3.321702 4.68133728 -5 6 C-5.66 6.99 -6.32 7.98 -7 9 C-7.36363636 3.54545455 -7.36363636 3.54545455 -5.75 1.125 C-4 0 -4 0 0 0 Z " fill="#41766F" transform="translate(294,357)"/>
<path d="M0 0 C0.33 1.32 0.66 2.64 1 4 C-0.65 5.32 -2.3 6.64 -4 8 C-4.66 7.34 -5.32 6.68 -6 6 C-4.02 4.02 -2.04 2.04 0 0 Z " fill="#2D6A64" transform="translate(333,348)"/>
<path d="M0 0 C4.29 0.66 8.58 1.32 13 2 C8.73070035 4.13464982 8.27189184 4.17477026 4 3 C2.8553125 2.7215625 2.8553125 2.7215625 1.6875 2.4375 C0.8521875 2.2209375 0.8521875 2.2209375 0 2 C0 1.34 0 0.68 0 0 Z " fill="#3E766C" transform="translate(274,431)"/>
<path d="M0 0 C2 1 4 2 6 3 C6 3.66 6 4.32 6 5 C6.66 5 7.32 5 8 5 C7.34 6.32 6.68 7.64 6 9 C4.99712471 7.68969568 3.99777175 6.37669473 3 5.0625 C2.443125 4.33160156 1.88625 3.60070312 1.3125 2.84765625 C0 1 0 1 0 0 Z " fill="#34716A" transform="translate(235,403)"/>
<path d="M0 0 C0.66 0.33 1.32 0.66 2 1 C2 1.66 2 2.32 2 3 C-2.43076923 5.09230769 -2.43076923 5.09230769 -5.3125 4.625 C-5.869375 4.41875 -6.42625 4.2125 -7 4 C-1.7265625 0.77734375 -1.7265625 0.77734375 0 0 Z M-5 6 C-3 7 -3 7 -3 7 Z " fill="#35746E" transform="translate(244,425)"/>
<path d="M0 0 C0 0.99 0 1.98 0 3 C-0.66 3 -1.32 3 -2 3 C-2 3.66 -2 4.32 -2 5 C-3.65 4.67 -5.3 4.34 -7 4 C-7 3.34 -7 2.68 -7 2 C-4.35261084 0.5393715 -3.10551666 0 0 0 Z " fill="#2A3844" transform="translate(1239,416)"/>
<path d="M0 0 C0.99 0.495 0.99 0.495 2 1 C1.34 1.66 0.68 2.32 0 3 C0 2.01 0 1.02 0 0 Z M-1 3 C-0.01 4.485 -0.01 4.485 1 6 C0.34 6 -0.32 6 -1 6 C-1 5.01 -1 4.02 -1 3 Z M-2 6 C-0.5393715 8.64738916 0 9.89448334 0 13 C-1.37562854 11.71034824 -2.70766393 10.37310707 -4 9 C-4 8.34 -4 7.68 -4 7 C-3.34 6.67 -2.68 6.34 -2 6 Z " fill="#2A3841" transform="translate(904,408)"/>
<path d="M0 0 C0.99 0.33 1.98 0.66 3 1 C3 2.98 3 4.96 3 7 C2.34 7 1.68 7 1 7 C0.67 7.66 0.34 8.32 0 9 C0 6.03 0 3.06 0 0 Z " fill="#2D3B46" transform="translate(562,389)"/>
<path d="M0 0 C0.66 0 1.32 0 2 0 C2 0.66 2 1.32 2 2 C3.32 2.33 4.64 2.66 6 3 C6 3.66 6 4.32 6 5 C5.01 5.495 5.01 5.495 4 6 C3.01 7.485 3.01 7.485 2 9 C1.34 6.03 0.68 3.06 0 0 Z " fill="#48545C" transform="translate(1018,382)"/>
<path d="M0 0 C3.96 0.33 7.92 0.66 12 1 C12 1.66 12 2.32 12 3 C8.37 3 4.74 3 1 3 C0.67 2.01 0.34 1.02 0 0 Z " fill="#283A47" transform="translate(435,341)"/>
<path d="M0 0 C3.36591866 1.44253657 5.51047079 3.33264727 8 6 C7.01 6.33 6.02 6.66 5 7 C3.29115995 5.37660195 1.62553283 3.70680947 0 2 C0 1.34 0 0.68 0 0 Z " fill="#45505B" transform="translate(503,413)"/>
<path d="M0 0 C0.66 0 1.32 0 2 0 C1.67 2.31 1.34 4.62 1 7 C0.34 7 -0.32 7 -1 7 C-1 6.34 -1 5.68 -1 5 C-2.98 5 -4.96 5 -7 5 C-7 4.67 -7 4.34 -7 4 C-4.69 3.34 -2.38 2.68 0 2 C0 1.34 0 0.68 0 0 Z " fill="#243642" transform="translate(889,363)"/>
<path d="M0 0 C-0.33 1.32 -0.66 2.64 -1 4 C-3.31 4.66 -5.62 5.32 -8 6 C-3.38461538 0 -3.38461538 0 0 0 Z " fill="#2C6A62" transform="translate(207,361)"/>
<path d="M0 0 C3.77545388 1.09068668 6.47043472 1.9083091 9 5 C2.25 4.125 2.25 4.125 0 3 C0 2.01 0 1.02 0 0 Z " fill="#46535B" transform="translate(944,337)"/>
<path d="M0 0 C3.7952131 1.49097658 5.61042731 3.75700849 8 7 C7.01 7 6.02 7 5 7 C0 1.53488372 0 1.53488372 0 0 Z " fill="#4A535D" transform="translate(1116,412)"/>
<path d="M0 0 C0.763125 0.20625 1.52625 0.4125 2.3125 0.625 C-0.31397188 2.37598126 -2.97525382 4.01231308 -5.6875 5.625 C-5.6875 4.305 -5.6875 2.985 -5.6875 1.625 C-2.6875 -0.375 -2.6875 -0.375 0 0 Z " fill="#434E55" transform="translate(1207.6875,373.375)"/>
<path d="M0 0 C0.66 0 1.32 0 2 0 C2.6875 1.75 2.6875 1.75 3 4 C1.5625 6.25 1.5625 6.25 0 8 C-1.125 2.25 -1.125 2.25 0 0 Z " fill="#3F7D76" transform="translate(167,355)"/>
<path d="M0 0 C0.99 0 1.98 0 3 0 C1.7508258 3.45925163 0.32472205 6.14693203 -2 9 C-2 7.02 -2 5.04 -2 3 C-1.34 3 -0.68 3 0 3 C0 2.01 0 1.02 0 0 Z " fill="#5A847C" transform="translate(263,346)"/>
<path d="M0 0 C2.6875 0.3125 2.6875 0.3125 5 1 C3.35 2.32 1.7 3.64 0 5 C-0.99 4.34 -1.98 3.68 -3 3 C-1.8125 1.4375 -1.8125 1.4375 0 0 Z " fill="#36766C" transform="translate(269,339)"/>
<path d="M0 0 C4.10801767 1.18676066 5.89448334 1.89448334 9 5 C4.545 4.01 4.545 4.01 0 3 C0 2.01 0 1.02 0 0 Z " fill="#47535C" transform="translate(480,338)"/>
<path d="M0 0 C3.3 0.33 6.6 0.66 10 1 C6.1496895 3.56687367 4.41430237 2.83288724 0 2 C0 1.34 0 0.68 0 0 Z " fill="#26655E" transform="translate(139,504)"/>
<path d="M0 0 C2.31 1.98 4.62 3.96 7 6 C5.68 6.33 4.36 6.66 3 7 C1.25 5.8125 1.25 5.8125 0 4 C0 2.68 0 1.36 0 0 Z " fill="#497974" transform="translate(172,414)"/>
<path d="M0 0 C0.33 0.99 0.66 1.98 1 3 C-1.3125 6.1875 -1.3125 6.1875 -4 9 C-4.66 9 -5.32 9 -6 9 C-6 8.01 -6 7.02 -6 6 C-4.37064759 4.62131719 -2.70250393 3.28725907 -1 2 C-0.67 1.34 -0.34 0.68 0 0 Z " fill="#414D54" transform="translate(1017,407)"/>
<path d="M0 0 C0.66 0 1.32 0 2 0 C2.433125 0.9590625 2.433125 0.9590625 2.875 1.9375 C3.82823451 4.15206079 3.82823451 4.15206079 6 5 C5.67 6.32 5.34 7.64 5 9 C0.57142857 3.85714286 0.57142857 3.85714286 0 0 Z " fill="#4A555B" transform="translate(1224,407)"/>
<path d="M0 0 C0.33 0 0.66 0 1 0 C1.25 2.75 1.25 2.75 1 6 C-1 8.375 -1 8.375 -3 10 C-2.69201674 8.51988629 -2.378482 7.04092675 -2.0625 5.5625 C-1.88847656 4.73878906 -1.71445312 3.91507812 -1.53515625 3.06640625 C-1 1 -1 1 0 0 Z " fill="#437B74" transform="translate(335,406)"/>
<path d="M0 0 C1.98 0.495 1.98 0.495 4 1 C4 1.99 4 2.98 4 4 C2.35 4.33 0.7 4.66 -1 5 C-0.67 3.35 -0.34 1.7 0 0 Z " fill="#273740" transform="translate(1132,364)"/>
<path d="M0 0 C1.65 0.33 3.3 0.66 5 1 C3.35 2.65 1.7 4.3 0 6 C0 4 0 2 0 0 Z " fill="#424D56" transform="translate(773,416)"/>
<path d="M0 0 C2.97 0 5.94 0 9 0 C9 0.66 9 1.32 9 2 C6.69 2.33 4.38 2.66 2 3 C1.34 2.01 0.68 1.02 0 0 Z " fill="#293A47" transform="translate(509,416)"/>
<path d="M0 0 C0.99 0.33 1.98 0.66 3 1 C1.63016497 4.16115776 1.0109362 4.9927092 -2 7 C-2 3.89448334 -1.4606285 2.64738916 0 0 Z " fill="#4E8079" transform="translate(259,410)"/>
<path d="M0 0 C3.73639216 1.24546405 4.18756513 2.63404953 6 6 C5.01 6 4.02 6 3 6 C0.8125 3.5 0.8125 3.5 -1 1 C-0.67 0.67 -0.34 0.34 0 0 Z " fill="#636D73" transform="translate(425,410)"/>
<path d="M0 0 C3.36720387 1.39332574 4.9859524 2.9789286 7 6 C4 6 4 6 1.8125 4.125 C0 2 0 2 0 0 Z " fill="#525E63" transform="translate(480,398)"/>
<path d="M0 0 C2 1 2 1 3 3 C1.02 3.66 -0.96 4.32 -3 5 C-3.66 4.34 -4.32 3.68 -5 3 C-2.625 1.4375 -2.625 1.4375 0 0 Z " fill="#4C5C64" transform="translate(747,372)"/>
<path d="M0 0 C1.32 0.33 2.64 0.66 4 1 C3.6875 2.875 3.6875 2.875 3 5 C2.01 5.66 1.02 6.32 0 7 C0 4.69 0 2.38 0 0 Z " fill="#0F5E53" transform="translate(256,369)"/>
<path d="M0 0 C1.98 0.495 1.98 0.495 4 1 C3.67 1.33 3.34 1.66 3 2 C4.65 2.33 6.3 2.66 8 3 C8 3.33 8 3.66 8 4 C5.03 4 2.06 4 -1 4 C-0.67 2.68 -0.34 1.36 0 0 Z " fill="#202E38" transform="translate(1249,368)"/>
<path d="M0 0 C0.66 0.99 1.32 1.98 2 3 C0.02 4.32 -1.96 5.64 -4 7 C-3.6875 4.625 -3.6875 4.625 -3 2 C-2.01 1.34 -1.02 0.68 0 0 Z " fill="#404D55" transform="translate(804,365)"/>
<path d="M0 0 C0.66 0 1.32 0 2 0 C3 1 4 2 5 3 C7.09989652 4.17574711 7.09989652 4.17574711 9 5 C5.625 5.125 5.625 5.125 2 5 C1.34 4.34 0.68 3.68 0 3 C0 2.01 0 1.02 0 0 Z " fill="#0E574F" transform="translate(225,363)"/>
<path d="M0 0 C0 0.99 0 1.98 0 3 C0.66 3.66 1.32 4.32 2 5 C1.01 5.495 1.01 5.495 0 6 C-2.125 5.0625 -2.125 5.0625 -4 4 C-4 3.01 -4 2.02 -4 1 C-2 0 -2 0 0 0 Z " fill="#28655F" transform="translate(329,337)"/>
<path d="M0 0 C0 0.66 0 1.32 0 2 C-2.64738916 3.4606285 -3.89448334 4 -7 4 C-7 3.01 -7 2.02 -7 1 C-2.25 0 -2.25 0 0 0 Z " fill="#457771" transform="translate(305,408)"/>
<path d="M0 0 C0.66 0.33 1.32 0.66 2 1 C1.01 3.97 0.02 6.94 -1 10 C-1.66 9.01 -2.32 8.02 -3 7 C-2.21069203 4.51064409 -1.1651105 2.330221 0 0 Z " fill="#4C5860" transform="translate(983,382)"/>
<path d="M0 0 C4 4.625 4 4.625 4 8 C3.01 7.67 2.02 7.34 1 7 C0.67 4.69 0.34 2.38 0 0 Z " fill="#585F66" transform="translate(559,373)"/>
<path d="M0 0 C0 0.66 0 1.32 0 2 C-0.66 2.66 -1.32 3.32 -2 4 C-2.33 4.66 -2.66 5.32 -3 6 C-3.99 5.34 -4.98 4.68 -6 4 C-6 3.34 -6 2.68 -6 2 C-3 0 -3 0 0 0 Z " fill="#303E46" transform="translate(544,376)"/>
<path d="M0 0 C0.66 0.66 1.32 1.32 2 2 C0.515 4.475 0.515 4.475 -1 7 C-1.66 6.67 -2.32 6.34 -3 6 C-1.125 1.125 -1.125 1.125 0 0 Z " fill="#25353F" transform="translate(1160,373)"/>
<path d="M0 0 C0.33 0 0.66 0 1 0 C1 2.64 1 5.28 1 8 C0.67 7.34 0.34 6.68 0 6 C-1.98 6 -3.96 6 -6 6 C-5.38125 5.7525 -4.7625 5.505 -4.125 5.25 C-1.64931313 3.79371361 -1.04874998 2.62187494 0 0 Z " fill="#202F3A" transform="translate(666,362)"/>
</svg>
