<?xml version="1.0" encoding="UTF-8"?>
<svg version="1.1" xmlns="http://www.w3.org/2000/svg" width="300" height="300">
<path d="M0 0 C1.38755592 -0.00785502 1.38755592 -0.00785502 2.80314326 -0.01586872 C5.8982454 -0.03085279 8.99318198 -0.03157353 12.08831787 -0.03224182 C14.3094053 -0.03986438 16.53049009 -0.04829205 18.75157166 -0.0574646 C24.78269228 -0.07940723 30.81376221 -0.08820825 36.84491825 -0.09329104 C40.61433831 -0.09693498 44.3837451 -0.10317525 48.1531601 -0.11029243 C58.60010552 -0.12974511 69.047043 -0.14626016 79.49400711 -0.14916897 C80.16192852 -0.14935654 80.82984993 -0.14954411 81.51801138 -0.14973736 C82.87190771 -0.1501036 84.22580405 -0.1504673 85.57970038 -0.15082847 C86.25172872 -0.15101128 86.92375706 -0.1511941 87.6161499 -0.15138245 C88.28900334 -0.151563 88.96185678 -0.15174354 89.65509972 -0.15192956 C100.55384824 -0.15547003 111.45239904 -0.18248707 122.35107902 -0.21988034 C133.5542602 -0.25800918 144.75736917 -0.27688618 155.96062255 -0.27762848 C162.24538077 -0.2784211 168.52988381 -0.28715336 174.81458282 -0.31562614 C180.72770759 -0.34181651 186.64036578 -0.34400611 192.55352211 -0.3279705 C194.71983928 -0.3261568 196.88618334 -0.3328395 199.05244255 -0.34878922 C220.7548226 -0.49879657 220.7548226 -0.49879657 227.72796631 5.27415466 C234.38887287 12.32777309 236.02957487 19.06461867 235.99539185 28.55964661 C235.99992296 29.48609501 236.00445407 30.41254342 236.00912249 31.36706603 C236.02176778 34.4668431 236.02014603 37.56644451 236.01849365 40.66624451 C236.02447877 42.89057643 236.03128428 45.11490628 236.03884888 47.3392334 C236.05651664 53.37848995 236.06120456 59.41768984 236.06248045 65.45696974 C236.06438007 70.49925384 236.07173823 75.54152475 236.07882464 80.58380377 C236.09417883 91.80059558 236.10016229 103.01736063 236.09881394 114.23415975 C236.09873402 114.90671354 236.09865411 115.57926733 236.09857178 116.27220154 C236.09849002 116.9455796 236.09840825 117.61895766 236.09832402 118.31274112 C236.09751111 129.22574438 236.11665183 140.13860962 236.14484851 151.05157296 C236.17359487 162.26605154 236.18702181 173.4804649 236.18566096 184.69498789 C236.18515102 190.98746522 236.19085195 197.2797863 236.21201706 203.57223129 C236.23137943 209.49022776 236.23153735 215.40791858 236.2169838 221.32592583 C236.21489221 223.49630238 236.21961733 225.66669796 236.23170471 227.83704185 C236.24715317 230.80328537 236.23785126 233.76847443 236.22244263 236.73469543 C236.23272975 237.59054525 236.24301688 238.44639506 236.25361574 239.32817972 C236.18639677 245.19646348 234.75945158 249.27169024 231.72796631 254.27415466 C231.19171631 255.16102966 230.65546631 256.04790466 230.10296631 256.96165466 C220.43812246 266.37216052 208.36813823 264.97870975 195.78997803 264.90525818 C193.55520053 264.91040086 191.32042709 264.91768477 189.08566284 264.92694092 C183.03617046 264.94541615 176.98712022 264.9325413 170.93764639 264.91285062 C164.59928488 264.89643506 158.26095074 264.90528088 151.9225769 264.91036987 C141.28194133 264.9148869 130.64149989 264.89914853 120.00091553 264.87107849 C109.06529431 264.84223077 98.12992375 264.83516586 87.1942749 264.85057068 C73.99450285 264.86913962 60.79487917 264.86738327 47.59509659 264.84835625 C42.56097441 264.84148999 37.52694541 264.84251385 32.49282455 264.8499012 C26.56488342 264.85756941 20.63730276 264.84541984 14.70942307 264.81805229 C12.53583343 264.81117372 10.3622101 264.81106479 8.18862152 264.81826782 C5.2181715 264.8269764 2.24883038 264.81098214 -0.7215271 264.78881836 C-1.57853938 264.79705913 -2.43555166 264.80529989 -3.31853402 264.81379038 C-10.29045921 264.71798691 -15.46651989 262.72341275 -20.73297119 258.12571716 C-21.36461182 257.39095154 -21.99625244 256.65618591 -22.64703369 255.89915466 C-23.29414307 255.16954529 -23.94125244 254.43993591 -24.60797119 253.68821716 C-28.4503685 248.11403514 -28.56318426 242.59809583 -28.53945923 236.07804871 C-28.54399034 235.16117853 -28.54852145 234.24430836 -28.55318987 233.29965425 C-28.56583417 230.23218365 -28.56421347 227.1648906 -28.56256104 224.09739685 C-28.5685463 221.89601412 -28.57535184 219.69463349 -28.58291626 217.49325562 C-28.6005846 211.51584615 -28.60527203 205.53849396 -28.60654783 199.56106091 C-28.60796963 195.82514285 -28.61223979 192.08923934 -28.61754227 188.35332489 C-28.63509113 175.98848032 -28.64438218 163.62366634 -28.64288132 151.25880978 C-28.64280141 150.59275542 -28.64272149 149.92670107 -28.64263916 149.24046326 C-28.6425574 148.57359105 -28.64247564 147.90671884 -28.6423914 147.21963838 C-28.64157892 136.41791653 -28.66070849 125.61633426 -28.68891589 114.81465277 C-28.71768214 103.71090666 -28.7310883 92.60721807 -28.72972834 81.50343251 C-28.72921885 75.27460688 -28.7348953 69.0459392 -28.75608444 62.8171463 C-28.77547645 56.95659704 -28.77558442 51.09635624 -28.76105118 45.23579597 C-28.75896313 43.08883526 -28.76366365 40.94185519 -28.77577209 38.7949276 C-28.79127118 35.85565705 -28.78188535 32.91744393 -28.76651001 29.97819519 C-28.77679714 29.13595296 -28.78708426 28.29371072 -28.79768312 27.425946 C-28.71353729 20.10723659 -26.77199108 13.36501107 -22.12359619 7.61790466 C-21.38883057 7.00946716 -20.65406494 6.40102966 -19.89703369 5.77415466 C-19.16742432 5.14509216 -18.43781494 4.51602966 -17.68609619 3.86790466 C-12.02967036 0.13356528 -6.54479202 -0.01840186 0 0 Z " fill="#13665F" transform="translate(47.27203369140625,17.725845336914063)"/>
<path d="M0 0 C0.54785156 0.50402344 1.09570312 1.00804688 1.66015625 1.52734375 C1.66015625 6.39881124 0.73804519 6.98247474 -2.52734375 10.40234375 C-3.34460938 11.27375 -4.161875 12.14515625 -5.00390625 13.04296875 C-5.77476562 13.8628125 -6.545625 14.68265625 -7.33984375 15.52734375 C-9.04207366 17.50161954 -10.69192443 19.50731362 -12.33984375 21.52734375 C-15.39810459 20.93305289 -17.28105013 20.01516875 -19.71484375 18.08984375 C-26.10651218 13.42419549 -32.55437462 12.60462148 -40.33984375 13.52734375 C-43.21598646 14.49522351 -44.14290671 15.27103003 -46.33984375 17.52734375 C-47.0899957 20.57042666 -47.0899957 20.57042666 -46.33984375 23.52734375 C-42.08142181 28.82052243 -34.27186285 30.34695624 -27.96484375 31.96484375 C-15.17955873 35.34652451 -5.21348997 40.04273259 1.75 51.6328125 C4.87710262 58.14201753 4.64080453 66.47026173 2.9765625 73.35546875 C-0.78572907 83.5339505 -7.26059333 89.22009088 -16.8984375 93.72265625 C-30.28946715 98.80875782 -50.12462044 99.21252529 -63.33984375 93.52734375 C-70.30554388 90.19992666 -76.76798822 86.95931696 -81.33984375 80.52734375 C-79.01598922 77.85229577 -76.67864638 75.18932638 -74.33984375 72.52734375 C-73.15261719 71.16222656 -73.15261719 71.16222656 -71.94140625 69.76953125 C-70.74644531 68.41214844 -70.74644531 68.41214844 -69.52734375 67.02734375 C-68.77839844 66.17140625 -68.02945313 65.31546875 -67.2578125 64.43359375 C-65.33984375 62.52734375 -65.33984375 62.52734375 -63.33984375 62.52734375 C-62.82421875 63.08421875 -62.30859375 63.64109375 -61.77734375 64.21484375 C-55.6000258 70.07537616 -48.80557724 72.66185993 -40.40234375 72.71484375 C-38.87287109 72.73611328 -38.87287109 72.73611328 -37.3125 72.7578125 C-34.23397213 72.51913557 -32.08299434 71.9259089 -29.33984375 70.52734375 C-27.70793052 67.26351729 -27.79121387 65.12391742 -28.33984375 61.52734375 C-33.39828738 56.79083221 -40.11861748 55.21249115 -46.65234375 53.58984375 C-58.21768784 50.47342764 -68.04546175 47.38194128 -74.33984375 36.52734375 C-74.95859375 35.49609375 -75.57734375 34.46484375 -76.21484375 33.40234375 C-78.64622816 27.00165106 -78.41617727 19.1599694 -76.49609375 12.6796875 C-72.00817173 2.86993904 -64.36463222 -3.71336057 -54.33984375 -7.47265625 C-35.57957084 -13.19990246 -16.62561231 -9.75909926 0 0 Z " fill="#F8FBFA" transform="translate(239.33984375,106.47265625)"/>
<path d="M0 0 C2.05270239 1.69644826 2.89895602 3.11497655 3.890625 5.5625 C2.1625875 7.77172483 0.43322988 9.97989506 -1.296875 12.1875 C-2.02100586 13.11369141 -2.02100586 13.11369141 -2.75976562 14.05859375 C-5.81179142 17.95043873 -8.92480461 21.77827559 -12.109375 25.5625 C-14.23498845 24.52158174 -16.31422513 23.44574604 -18.37109375 22.2734375 C-24.93248173 18.65991948 -29.85181771 17.36581718 -37.203125 19.0390625 C-43.23548494 20.9647774 -48.09494054 24.28235894 -51.43359375 29.71875 C-55.18419401 37.82531056 -55.41913638 46.87938666 -52.984375 55.4375 C-50.80029904 61.0156095 -47.47891342 65.1191435 -42.37109375 68.23046875 C-35.98136327 70.83992755 -28.0129222 70.77277009 -21.42578125 68.73046875 C-18.60093232 67.34655193 -16.3338072 65.7869322 -14.109375 63.5625 C-11.109375 63.5625 -11.109375 63.5625 -9.6015625 64.92578125 C-8.80105469 65.89064453 -8.80105469 65.89064453 -7.984375 66.875 C-7.38367188 67.59816406 -6.78296875 68.32132812 -6.1640625 69.06640625 C-5.48601562 69.89011719 -4.80796875 70.71382813 -4.109375 71.5625 C-3.28695312 72.49964844 -2.46453125 73.43679687 -1.6171875 74.40234375 C-0.78960937 75.36269531 0.03796875 76.32304687 0.890625 77.3125 C2.06625 78.66601562 2.06625 78.66601562 3.265625 80.046875 C4.890625 82.5625 4.890625 82.5625 4.9375 84.671875 C1.72350487 90.47625426 -6.78171579 93.73347258 -12.734375 96 C-27.86379153 100.19555248 -46.0039708 99.46224598 -59.859375 92.1015625 C-73.45217523 84.31731353 -81.61226262 73.51941393 -86.109375 58.5625 C-89.80573009 44.42096087 -87.37617545 28.72323922 -80.234375 16.1875 C-72.28393371 3.9454026 -61.24275158 -4.65391659 -46.73730469 -7.98168945 C-30.49389854 -10.79908441 -14.09490133 -8.587622 0 0 Z " fill="#F9FCFB" transform="translate(146.109375,105.4375)"/>
<path d="M0 0 C1.01320313 0.00902344 2.02640625 0.01804687 3.0703125 0.02734375 C5.54712801 0.05070993 8.02343379 0.08346832 10.5 0.125 C10.5 0.455 10.5 0.785 10.5 1.125 C9.53320312 1.17398438 8.56640625 1.22296875 7.5703125 1.2734375 C0.82334118 1.66088734 -5.66323248 2.22095709 -12.26953125 3.71484375 C-15.71733233 4.3488527 -19.00392352 4.25448431 -22.5 4.125 C-15.59354097 -0.47930602 -8.00847981 -0.13662761 0 0 Z " fill="#D4EDEA" transform="translate(113.5,96.875)"/>
<path d="M0 0 C0.66 0 1.32 0 2 0 C0.67879172 2.93230193 -0.74638197 4.98664899 -3.0390625 7.234375 C-3.90917969 8.09482422 -3.90917969 8.09482422 -4.796875 8.97265625 C-5.40015625 9.55917969 -6.0034375 10.14570313 -6.625 10.75 C-7.23601562 11.35199219 -7.84703125 11.95398438 -8.4765625 12.57421875 C-9.97988624 14.05405305 -11.48934856 15.52764676 -13 17 C-13.66 16.67 -14.32 16.34 -15 16 C-14.41992188 15.43152344 -13.83984375 14.86304688 -13.2421875 14.27734375 C-9.5299688 10.60800547 -5.8881861 6.96463354 -2.5625 2.9375 C-1.2940625 1.4834375 -1.2940625 1.4834375 0 0 Z " fill="#D7E8E7" transform="translate(174,169)"/>
<path d="M0 0 C0.66 0.33 1.32 0.66 2 1 C-1.63 4.63 -5.26 8.26 -9 12 C-9.66 11.67 -10.32 11.34 -11 11 C-7.6189962 6.86378916 -4.33409466 3.18683431 0 0 Z " fill="#D3E9E6" transform="translate(80,106)"/>
<path d="M0 0 C0.66 0.33 1.32 0.66 2 1 C0.02 2.98 -1.96 4.96 -4 7 C-4.99 6.67 -5.98 6.34 -7 6 C-2.25 1.125 -2.25 1.125 0 0 Z " fill="#E7F5F1" transform="translate(87,102)"/>
<path d="M0 0 C0.33 0.66 0.66 1.32 1 2 C-0.80831392 5.61662784 -3.05278838 8.25604436 -6 11 C-6.66 10.67 -7.32 10.34 -8 10 C-5.36 6.7 -2.72 3.4 0 0 Z " fill="#32776E" transform="translate(142,120)"/>
<path d="M0 0 C0.99 0.33 1.98 0.66 3 1 C2.525625 1.37125 2.05125 1.7425 1.5625 2.125 C-0.52205802 4.62646962 -0.64621491 6.81593418 -1 10 C-1.66 9.67 -2.32 9.34 -3 9 C-3.36923077 3.46153846 -3.36923077 3.46153846 -1.5 1.125 C-1.005 0.75375 -0.51 0.3825 0 0 Z " fill="#316F67" transform="translate(195,121)"/>
<path d="M0 0 C-1.5830577 4.2742558 -4.50568404 6.26531794 -8 9 C-7.53918323 4.85264908 -4.48412936 0 0 0 Z " fill="#2B6D68" transform="translate(31,22)"/>
<path d="M0 0 C0.66 0.99 1.32 1.98 2 3 C1.3125 6.125 1.3125 6.125 0 9 C-0.99 9.33 -1.98 9.66 -3 10 C-2.01 6.7 -1.02 3.4 0 0 Z " fill="#C7E1DF" transform="translate(63,127)"/>
<path d="M0 0 C3.82946843 1.45255699 5.12050295 3.42895561 7 7 C3.63408134 5.55746343 1.48952921 3.66735273 -1 1 C-0.67 0.67 -0.34 0.34 0 0 Z " fill="#D2EAE7" transform="translate(75,187)"/>
<path d="M0 0 C0.66 0.33 1.32 0.66 2 1 C0.02 3.31 -1.96 5.62 -4 8 C-4.33 7.01 -4.66 6.02 -5 5 C-3.35 3.35 -1.7 1.7 0 0 Z " fill="#2A6F67" transform="translate(101,127)"/>
</svg>
